<svg id="Layer_1" data-name="Layer 1" xmlns="http://www.w3.org/2000/svg" width="120" height="120" viewBox="0 0 120 120"><defs><style>.cls-1{fill:#823691;}.cls-2{fill:#c1a7c7;}.cls-3{fill:#632085;}.cls-4{fill:#345845;}.cls-5{fill:#339e65;}</style></defs><path class="cls-1" d="M63.82,57C92.15,27.26,95.67,4.8,111.92,16.27c5.16,3.64,2.49,21.82-2.37,33.52C100.46,71.69,93,81.16,80.48,94.18c-25,26-75.14,36.2-80.33,12.42C-1.25,100.18,7,87,23.22,77.3,35,70.24,53.38,67.93,63.82,57Z"/><path class="cls-2" d="M11.1,90.4c4.64-5.3,11.17-8.92,11.76-8.61s-5,4.42-9.62,9.72-6.59,9.81-7.18,9.5S6.46,95.71,11.1,90.4Z"/><path class="cls-2" d="M110.11,37.5c.87-4.1-.14-8.06-.6-8.12s-.19,3.8-1.06,7.89-2.55,6.87-2.1,6.94S109.24,41.59,110.11,37.5Z"/><path class="cls-2" d="M34,111.24c-3.31,1.44-7.25,1.53-7.49,1.22s3.32-.9,6.63-2.33,5.12-3.18,5.36-2.87S37.35,109.81,34,111.24Z"/><path class="cls-3" d="M66.84,97.59c1.72-1.49,5.55-5.36,7.19-6.84,18.86-17,29.79-34.6,30-34.43S97.32,73.25,71,96.46c-10.14,9-9.33,6.38-20.5,13.29S31,115.31,30.85,115.22,47.4,114.37,66.84,97.59Z"/><path class="cls-4" d="M108.12,8.76,111,1.83c.58-1.39,2.52-2.15,4.33-1.7h0l-4,9.45Z"/><path class="cls-5" d="M112.69,8c-6-2.66-19-.58-23.12,11.71-1,3.05-14.72,6.87-14.33,7.93,1.43,3.86,23.61-4.9,23.61-4.9l-2.38,9.36,8.24-8.2.31,7.55,4.23-7s8.46,9.9,8,13.35c-1.2,8.67,6.71-12.77.11-26.64A15.54,15.54,0,0,0,112.69,8Z"/></svg>