<svg id="Layer_1" data-name="Layer 1" xmlns="http://www.w3.org/2000/svg" width="120" height="120" viewBox="0 0 120 120"><defs><style>.cls-1{fill:#339e65;}.cls-2{fill:#92db40;}.cls-3{fill:#345945;}</style></defs><path class="cls-1" d="M91.16,67.24c7,4.2,5.52,9.74,13.62,9.42,9.93-.4,11.49-3.8,13.18-14.3s4.19-15.92-1.45-20-16.67-2.89-16.67-2.89,10.77-.47,10.77-9.24-7.28-21.7-15.25-19.34-11.7,10.47-11.7,10.47,6.89-5.9,2.66-10.5S80.76-1.95,71.58.42,59.19,5.06,59.74,10.65s-2.91-5.9-9.09-7.21S30.92,10.9,29.73,16c-1.42,6.07-3.07,3.67,3.45,12.85s4.3.86-3.9,1.22c-5.06.23-3-2.61-13.73,3.85-6.47,3.9-7.79,10.67-1.26,18.66s2.19,1.9-5.71,5.28C2.84,60.32-5,70,4.33,77c13.26,9.91,22.84.06,22.84.06l2.32-6.17s3.13,6.18,8,4.06c8.78-3.81,5.44-5.6,8.06-9.54,3-4.45,3.3-6.6,3.3-6.6s-1,3.38,2.57,7.53C56.64,72.49,64.33,71,64.33,71a23.26,23.26,0,0,1,4.3-6.29c3.19-3.47,9.14-6.89,9.14-6.89a19.47,19.47,0,0,0,3.13,8.81C84.05,71.62,91.16,67.24,91.16,67.24Z"/><path class="cls-2" d="M37.5,72.77C41,74.05,36,69,43.84,85.27s5.9,25.65,5.9,25.65-.29,3.69,5.9,5.29,9.15,5,15.2,3.37,6.34.32,9-4,1.77-5.13,2.07-12.5,1.32-10.42,3-16.35.29-7.06,5-11.71-5-2.4-5-2.4l4-4.65-3.25-5L80,65.24l-.59,6.09-3.1,4.16-1.92-5.61.3-6.41.59-5.61-7.09,6.41L67,67.8l1.18,5.13-.73,5-4.72.64-3.1-2.24-.74-5.61L57.12,66l-2.8,5-1,5.77-5.46-7.22L46.35,66.2,43,62.83l-4.42,5.93Z"/><path class="cls-3" d="M92.61,24.2c-6.58-1.35-10.93.39-13.45,4.87C73.6,39,72.35,41.6,72.35,41.6L83.11,27Z"/><path class="cls-3" d="M67.52,78.26c-2.84,2.62-4.31,6.83-4.62,12.54-.69,12.61-.78,15.85-.78,15.85l2-20.16Z"/><path class="cls-3" d="M53.28,76.78c1.53,2.26,2.28,6,2.37,11,.2,11.13.21,14,.21,14L55,84Z"/><path class="cls-3" d="M76.3,75.49c1.59,1.68,2.19,3.92,2,6.72-.52,6.19-.71,7.77-.71,7.77l.24-10Z"/><path class="cls-3" d="M93.91,60.27c-.37-6.61-2.17-10.1-5.25-11-6.81-1.94-8.59-2.24-8.59-2.24L90.6,52.29Z"/><path class="cls-3" d="M60,24.46c-7.75-3.08-12.34-2.82-14.31.37-4.36,7-5.26,9-5.26,9l9.32-9.68Z"/><path class="cls-3" d="M60.84,49c-5.8-6.55-10.05-8.54-13.05-6.62a93.75,93.75,0,0,0-8.2,5.56l12.13-4.21Z"/><path class="cls-3" d="M29.14,41.6c-3.4,2.45-4.85,3.95-4.63,4.66a8.75,8.75,0,0,0,.71,1.92l.44-3.25Z"/></svg>