<svg id="Layer_1" data-name="Layer 1" xmlns="http://www.w3.org/2000/svg" width="120" height="120" viewBox="0 0 120 120"><defs><style>.cls-1{fill:#fe6700;}.cls-2{fill:#44cc41;}.cls-3{fill:#345945;}</style></defs><path class="cls-1" d="M44,63c-1,4.24-1.21,3.28,2.15,10,3.53,7.09.22,1.5,6.36,9.34s6,4.39,10.64,5.8,2-4.14,6.61,4.65,6.92,9,6.92,9l3.13-1.66S77.44,92.89,83,102s5.8,6.31,8.95,7.45c14,5,11.36.68,11.36.68l3.89,7s4.73,4.88,8.62,1.8S120,112.8,120,112.8V106l-2.41-6L114,95.25l-7.81-.53s2.1-1,1.69-4.44,4.16-1.29-1.52-6S98,78.94,98,78.94H95.23s-2.12,1.73-1-3.54-.08-7.73-.08-7.73-.41-1-3.75-2-5.58-1.73-5.58-1.73-2,.7-1.08-3.21a7.18,7.18,0,0,0-1.24-6.26l-4.4-3-3.9,0-2.54.69s-3.64.28-4.19-5.31c-.68-7-17.73.14-17.73.14l-1.53,2.56L46,54.38Z"/><path class="cls-2" d="M45.46,55c-3-.49-4.93-5.34-7.81-2.55C27.12,62.7,26.23,63.92,24.58,61.32s-3-1.87-.13-5.38.84-4.31,3.92-6.32-4.68,7.52-8,8.08c-6,1-8.35,1.86-4.92-1.93s-2.66-.89-5.21-.54-3.2,1.05-4.45.08S2.49,56.78,4.52,52s-.86-5.43,4.57-6.34a63,63,0,0,0,7.37-1.44c2.36-.59-4.44,1.8-4.76-2.57-.63-8.56-.76-8.52,1.07-8.92s.34.25,4.11-2.54c5.25-3.9-3.28-.79-7.25-1.16s-3.94-.57-6.32-2.94S.39,25.27.16,20.91s-.65-4.42,2.19-7.62S3.58,6.58,7.84,7.34s3.38-4.76,8,3.29,5.8,5,6.5,10,2.12,3.93,2.06-.68-3.49-8-3.72-11.68-2.25-5,2-6.67,5.52-2.36,8.11-.21,2.64,1.19,3.41,5.08,1.84,5,.22,8.3S31,18.21,30.64,20.9s1.77,3.55,4.34,1.52,3.65-1.3,3.88-6.2S32,6,38.57,7.55s6.21-.87,8.37,3.64,2,4.16,1.7,7.52S48.48,24,46,25.6s-2.54,1.47-4.31,2.6-7.17,1.88-4.94,2.62c4.78,1.57,7.71.61,7.71.61l2.74-.81s3.54-.77,2.43,2.94.69,3.52-2.3,5.59-8.91-6.52-5.56,2c1.12,2.84,1.22,3.88.86,4-.73.24-3.32-3.2-3.32-3.2s5.76,8.58,7.28,7.45c3.34-2.48.5,4,.5,4Z"/><path class="cls-3" d="M25.74,32c2,2.21,3.88,2.61,5.66,1.44,3.93-2.58,4.9-3.33,4.9-3.33l-6.69,3.18Z"/><path class="cls-3" d="M69.69,52.94a4.85,4.85,0,0,0-5,3.69c-1.71,5.31-2.07,6.71-2.07,6.71l3.51-8.11Z"/><path class="cls-3" d="M66.64,87.69c-.39-3.4.32-5.69,2-7.06,3.74-3,4.73-3.72,4.73-3.72l-5.57,5.8Z"/><path class="cls-3" d="M83.64,63.57a3.09,3.09,0,0,0-3.24,2.35c-1.1,3.4-1.33,4.3-1.33,4.3L81.33,65Z"/><path class="cls-3" d="M105.11,104.78a2.93,2.93,0,0,0-1.35,2.47c-.23,2.6-.26,3.27-.26,3.27l.63-4.13Z"/><path class="cls-3" d="M91.67,104.27a2.29,2.29,0,0,0-1.31,2c-.2,2.18-.23,2.74-.23,2.74l.58-3.46Z"/><path class="cls-3" d="M94.41,79c-2.18-.15-3.48.69-4,2.41-1.24,3.8-1.5,4.8-1.5,4.8l2.65-5.75Z"/><path class="cls-3" d="M106.36,94.74c-2.17.64-3.17,1.45-3.18,2.44a26.11,26.11,0,0,0,0,2.74l.78-3.56Z"/><path class="cls-3" d="M79.39,97.47c-1.17-2.49-1.43-4-.9-4.71A21.1,21.1,0,0,1,80,90.88l-1.38,3.23Z"/><path class="cls-3" d="M53.19,82.7c-1.06-3.28-1.06-5.15-.13-5.85A26.61,26.61,0,0,1,55.67,75l-2.75,3.47Z"/><path class="cls-3" d="M25.87,53.66C29,50.8,30.28,49.08,30,48.29a10.83,10.83,0,0,0-.77-2.12L29,49.82Z"/><path class="cls-3" d="M35,44.39a8.33,8.33,0,0,0,5.21,5.47c5.81,2.36,7.31,2.89,7.31,2.89l-9.15-4.5Z"/></svg>