<svg id="Layer_1" data-name="Layer 1" xmlns="http://www.w3.org/2000/svg" width="150" height="150" viewBox="0 0 150 150"><defs><style>.cls-1{fill:#cb5741;}.cls-2{fill:#ffa125;}.cls-3{fill:#e1ab4d;}.cls-4{fill:#e3a955;}.cls-5{fill:#f8ebd6;}.cls-6{fill:#fff;}.cls-7{fill:#c9251e;}.cls-8{fill:#a62924;}.cls-9{fill:#fca027;}.cls-10{fill:#e26f0a;}</style></defs><path class="cls-1" d="M44.69,31c-2,2.07-.2,6.35-2,8-5.35,4.89-11.93,3.58-12.53-2.66-.66-6.83,5.59-7.81,6.42-9.84,1.4-3.44-15.71-6-6.44-10.17S44.69,19.4,44.69,19.4,31.68,6.53,40.1,1.28,60.35,8.25,62,14.54c.44,1.65-.77,6.43-.77,6.43Z"/><path class="cls-2" d="M27.3,83.85S12.18,94.11,5.57,80.93c-5.52-11,12.64-14.48,16.21-13.28s5.86-3.91-4.19-4.47-22.09-2-15.9-9.88S18.84,42.08,27.38,46c20.09,9.19,4.77,12.89,4.77,12.89l-.33,4.31Z"/><path class="cls-2" d="M113.67,43.14s1.18-5.54,6.53-7.28,6.16-3.42,9.59,2.55,6.56,6.6-1.23,13.19h0c-7.8,6.59-11,4.93-11,4.93l20.39,2.52s4.45,3.23-.94,7.42-13.23,6.26-13.23,6.26L129.8,78s5.79,3.23,2,6.34S121,86.29,121,86.29L111.06,52l-2.42-3.16Z"/><polygon class="cls-3" points="45.69 127.26 43.94 133.87 42.62 141.51 47.68 149.04 37.36 140.94 29.83 146.14 26.53 148.41 18.13 150 23.84 145.59 28.68 141.83 16.66 139.92 26.95 138.54 31.71 137.9 22.26 129.43 30.9 128.96 35.16 134 45.69 127.26"/><path class="cls-4" d="M107.44,119.89l4,6,6.69,3s.79-3.41,4.82-7.82h0a48.55,48.55,0,0,1,8.22-7.14l-6.94,17.43,6.9-3.71h0l9.71-5.6-6.47,11.1L150,139.5,133.25,139,120.43,137l-9.44.83-3.41,9.55Z"/><path class="cls-5" d="M30.58,55.17A106.65,106.65,0,0,1,43.64,31.36a44.78,44.78,0,0,1,9.89-8.87c2.17-1.23,6.84-3.27,9.3-3.5a40.59,40.59,0,0,1,11.48,1.4c13.32,4,18,8.46,24.91,13.84C111.77,44,126.69,60.8,124.14,100.1c-.73,11.34-13.54,28.5-34,29.76-26.16,1.59-38.94.86-48.21-2.6-10-3.73-15.6-10.1-17-13-4.79-9.87-3.09-18.39-2.1-30.53S29.37,58.52,30.58,55.17Z"/><ellipse class="cls-6" cx="55.6" cy="45.69" rx="12.69" ry="9.89" transform="translate(-7.84 79.67) rotate(-67.59)"/><ellipse class="cls-6" cx="78.02" cy="40.33" rx="9.45" ry="13.8" transform="translate(-8.52 55.29) rotate(-37.15)"/><ellipse cx="55.6" cy="47.35" rx="5.76" ry="5.96"/><ellipse cx="79.53" cy="42.21" rx="5.76" ry="5.96"/><ellipse class="cls-6" cx="58.85" cy="47.35" rx="1.32" ry="1.36"/><ellipse class="cls-6" cx="81.71" cy="42.21" rx="1.32" ry="1.36"/><ellipse class="cls-6" cx="81.05" cy="44.65" rx="0.66" ry="0.68"/><ellipse class="cls-6" cx="58.19" cy="49.92" rx="0.66" ry="0.68"/><ellipse class="cls-3" cx="70.03" cy="91.93" rx="2.25" ry="2.33"/><path class="cls-7" d="M65.28,72.44s-.4.41-1,1.11c-1.76,2-5.23,6.63-5.54,11.14-.41,6.06,2.18,14,5.4,14.7,3.69.86,13.44-.59,16.25-2.75a19.22,19.22,0,0,0,5.24-7s3.07.45,6.4.78S99.5,88,99.32,85c-.23-3.84-3.38-8.73-10.6-9.6-2.88-.35-1.35,5.38-1.35,5.38l-4.79,4.31-6.83-1.15-6.11-5.41Z"/><path class="cls-8" d="M85.63,89.69c-.12-.53,3.86.7,7.55.31,3.89-.42,5.75-4,5.87-3.5s-.72,3-4.33,3.91S85.75,90.21,85.63,89.69Z"/><path class="cls-8" d="M64.78,72.9s-.4.41-1,1.11c-1.76,2-5.23,6.63-5.54,11.14-.41,6.06,2.18,13.95,5.4,14.7,3.69.86,13.44-.59,16.25-2.75,3.45-2.65,5.92-4.74,5.74-7.74-.07-1.16,0,.07-1,1.77a6,6,0,0,1-1.84,2.36,34.49,34.49,0,0,1-7.89,4c-9.47,3.62-12.69-1.63-13.57-5.52C58.76,80.36,64.78,72.9,64.78,72.9Z"/><path class="cls-9" d="M65.39,58.27c3.14-4.15.65-7.14,8.72-5.05S82,55,86.33,59.53a28.65,28.65,0,0,1,5.93,8.66Z"/><path class="cls-9" d="M65.15,58.09c-2.84,11.53-4,12.18,4.13,20.33s9.5,8.06,14.58,7.51,5-5.13,5.9-7.79S85.7,67.79,85.3,64.88,65.15,58.09,65.15,58.09Z"/><path class="cls-10" d="M65.39,58.09,80.57,68.73s10,8.21,5.66-2.76"/></svg>