<svg id="Layer_1" data-name="Layer 1" xmlns="http://www.w3.org/2000/svg" width="150" height="150" viewBox="0 0 150 150"><defs><style>.cls-1,.cls-5{fill:#f9afe7;}.cls-1{stroke:#c29db7;}.cls-1,.cls-7{stroke-miterlimit:10;}.cls-2,.cls-7{fill:#fff;}.cls-3{fill:#d3bba8;}.cls-4{fill:#001300;}.cls-6{fill:#f8d6d2;}.cls-7{stroke:#000;}.cls-8{fill:#000700;}.cls-9{fill:#d1ada9;}.cls-10{fill:#cc9791;}</style></defs><path class="cls-1" d="M31.09,88.06c-1.14.23-1.8,2-1.27,3.27a2,2,0,0,0,3,.88,3,3,0,0,0,.89-2.93,2.06,2.06,0,0,0-2.1-1.69C30.68,87.73,29.93,88.8,31.09,88.06Z"/><path class="cls-2" d="M20.64,66.44c0,1.64.18,11.09,1.79,12.46,11.26,9.62,57.06,5,57.06,5L78,59.21l1.34-1.74.52-3.18-.37-5-1.07-4.73-1.84-8.95-1.19-3.06-9-10.12-5.67-1.8-5.07-.75H53.57"/><path d="M21.05,45.69,20,52.87a1.55,1.55,0,0,0,0,.37v9c0,.1,0,.2,0,.3l.31,2.88c.16,1.54,1.49,2.45,2.65,1.81l8.26-4.51a1.74,1.74,0,0,0,.46-.36c2.28-2.4,22.12-23.6,23.5-32.77l1.06-7a2.22,2.22,0,0,0-1.86-2.73H45.07a.84.84,0,0,0-.31.05l-6.3,2c-.07,0-.22.15-.29.19l-4.4,2.52a1.74,1.74,0,0,0-.46.36l-4.05,4.41-2.63,2.22"/><polyline class="cls-3" points="75.31 32.57 80.5 20.58 81.61 15.37 81.23 10.39 79.94 4.96 79.2 3.38 78.46 3.06 77.53 3.42 76.79 5.64 75.31 11.15 72.53 15.15 69.75 18.77 66.23 22.27"/><polyline class="cls-3" points="28.64 29.85 24.71 17.06 24.14 11.73 25.01 6.85 26.85 1.66 27.75 0.2 28.52 0 29.4 0.49 29.91 2.81 30.82 8.51 33.16 12.89 35.55 16.9 39.2 21.71"/><path class="cls-2" d="M41.62,94.34c2.57-27.3,30-37.11,45.43-37.89s49.08,7.24,46.88,35.8-17.1,33.2-50.09,37.19S39.05,121.64,41.62,94.34Z"/><path class="cls-2" d="M129.32,88.27c-5-4.33-10.46-14-8.25-16.41,3.47-3.79,15.2,8.12,20.9,15.92,6.89,9.43,9,18.44-4.32,3.44C131.77,84.59,133.44,91.84,129.32,88.27Z"/><path class="cls-4" d="M145.64,90.92c.15.06,1.24.49,1.4.58,1.39.77,2.68,3.94,2.33,5.76-.07.38.44,1.15.23,1.37l.21,1.48.19,3.22-1.15-1-.89-.79-1-.39c-.4.4-.78,0-2-.23s-3.21-.66-3.41-1.66l-.64-1.61-.21-.77c-.45-2.25.35-3.23,1.61-4.61l1.82-1.31Z"/><path class="cls-2" d="M59.78,119.56c-.07-6.48-5.81-12.75-10.68-9.23-7.7,5.57-5.53,20.47-2.17,27.4,4,8.37,12.28,10,8.12-6.72C53.21,123.64,59.84,124.89,59.78,119.56Z"/><polygon points="47.35 138.69 48.41 144.3 50.1 146.58 52.26 145.7 54.04 147.51 55.08 146.83 55.83 144.57 56.42 141.63 56.42 139.48 47.35 138.69"/><path class="cls-2" d="M115.16,123.77c-.07-5.83-5.23-11.48-9.61-8.31-6.93,5-5,18.43-2,24.67,3.65,7.54,11.06,9,7.31-6C109.25,127.44,115.22,128.58,115.16,123.77Z"/><polygon points="103.83 140.5 104.8 146.11 106.36 148.39 108.34 147.51 109.97 149.32 110.93 148.64 111.61 146.38 112.16 143.44 112.16 141.29 103.83 140.5"/><path class="cls-2" d="M111.27,123.63c.08-6.48,5.81-12.75,10.69-9.23,7.7,5.57,5.52,20.47,2.17,27.4-4,8.37-12.28,10-8.12-6.72C117.85,127.71,111.21,129,111.27,123.63Z"/><polygon points="124.2 141.85 123.07 147.04 121.27 149.14 118.99 148.33 117.09 150 115.99 149.37 115.2 147.28 114.57 144.57 114.57 142.58 124.2 141.85"/><path class="cls-2" d="M54.42,123.63c.08-6.48,5.81-12.75,10.68-9.23,7.7,5.57,5.53,20.47,2.18,27.4-4.05,8.37-12.29,10-8.12-6.72C61,127.71,54.36,129,54.42,123.63Z"/><polygon points="67.16 141.85 66.08 147.04 64.35 149.14 62.15 148.33 60.33 150 59.27 149.37 58.51 147.28 57.9 144.57 57.9 142.58 67.16 141.85"/><path class="cls-5" d="M91.61,128.72l2.9,1.52h1.58a2.15,2.15,0,0,0,0,2.2c.7,1.11,1.74,3.14,3.6.09s3.77-1.1,3.77-1.1.28,3,1.57,2.71a3.23,3.23,0,0,0,2.67-2.7,1.76,1.76,0,0,1,1.32-1.7s-.41,3,1.25,2.79,2.74.51,2.92-3.81a46.5,46.5,0,0,0,0-6.08"/><path class="cls-4" d="M107.33,82.65c3.2,3.76.41,13-6.47,13C90,95.7,83.27,82.52,83.27,77.14c0-6.5,9.8-13.81,13.89-2.49C99,79.66,104.69,79.56,107.33,82.65Z"/><path class="cls-4" d="M104.57,63.54c-1.38-3.69,0-4,4.78-1.78,7.51,3.46,16.05,13.88,14.87,17.71-1.43,4.63-14,2.37-14.37-7C109.69,68.34,105.72,66.59,104.57,63.54Z"/><path class="cls-2" d="M103.72,33.5c1.31,6.72-3.32,13.83-10.35,15.88a29,29,0,0,1-15.76-.62c-.32-.11-2.18-15.19-2-15.39,3.77-3.88,9.11-7.2,13-8.33C95.65,23,102.41,26.78,103.72,33.5Z"/><path class="cls-6" d="M103.72,33.5c1.31,6.72-3.32,13.83-10.35,15.88a29,29,0,0,1-15.76-.62c-.32-.11.44-.59.63-.79C82,44.09,88.15,44.3,92,43.16c2.88-.84,6.87-2.26,8.63-4.93C103.2,34.38,103,29.54,103.72,33.5Z"/><path class="cls-7" d="M39.08,78.91c-3.73.07-7.5-8.42-7.64-15.72-.15-7.85,3.84-16.85,7.64-16.78s7.34,9.27,7.13,17C46,70.34,42.77,78.83,39.08,78.91Z"/><path class="cls-7" d="M60.6,78.9c-4-.31-7.41-9.16-7.09-16.46.34-7.85,5.14-16.43,9.15-16s7.19,10,6.48,17.7C68.5,71,64.51,79.19,60.6,78.9Z"/><path class="cls-2" d="M2.17,19.8c-3.8,5.6-2.48,13.84,3,18.4,3.24,2.73,10.59,7.89,15.66,8.24.33,0,6.7-15.37,6.61-15.62-1.83-5-5.48-10.36-8.5-12.89C13.47,13.36,6,14.2,2.17,19.8Z"/><path class="cls-6" d="M1.92,20.2c-3.66,5.43-1.94,14,3.84,19.23a32.31,32.31,0,0,0,14.85,7c.34.05-.19-.75-.3-1-2.09-5.29-7.85-8-11-10.9C6.89,32.35,3.7,29.16,3,25.91,2.09,21.24,4.08,17,1.92,20.2Z"/><path class="cls-8" d="M39,73.61c-1.87,0-3.77-5-3.84-9.35C35,59.6,37,54.25,39,54.29s3.68,5.51,3.58,10.11C42.43,68.52,40.8,73.57,39,73.61Z"/><path class="cls-8" d="M62.6,73.61c-1.87,0-3.76-5-3.83-9.35-.08-4.66,1.93-10,3.83-10s3.68,5.51,3.58,10.11C66.09,68.52,64.45,73.57,62.6,73.61Z"/><path class="cls-6" d="M79.58,86.25c2.7-5.67-3.49-12.21-4.16-13.06s-6-4.2-14.32-4.69a120.31,120.31,0,0,0-17.74.61l-7,.56-7.73,1.27-4.41,3.13s-3,3.27-3.41,5.64S20,89.57,20,89.57a15.88,15.88,0,0,0,1.28,7.12c1.63,4.06,3.65,7.65,6,9.78s7.25,3.59,8.33,4,10.21,2.44,13.2,2.19,14.58,1.38,20.45-4.46,8.3-6.23,9.44-11.47,2.08-6.49,1.78-9.38.15-.33-.08-1.61a25.93,25.93,0,0,0-1-3.42"/><path class="cls-9" d="M57.7,111.12c-.93.31-12.35,2.28-27.7-6.92-7.56-4.54-8.64-27.06-9-24.68s-.88,10-.88,10a16,16,0,0,0,1.28,7.18c1.65,4.09,3.69,7.71,6.1,9.85s7.31,3.62,8.41,4,10.31,2.45,13.33,2.2,14.72,1.39,20.64-4.5c6.42-6.37,3-3.58,6.53-7,3-3-8.6,8-6.54,6.47,3.89-2.87-5.49,3-4.7,2.14"/><path class="cls-10" d="M61.49,88.84c-1.06,0-2.13-2-2.17-3.72s1.09-4,2.17-4,2.08,2.19,2,4C63.46,86.81,62.53,88.82,61.49,88.84Z"/><path class="cls-2" d="M63.53,65.07a1.41,1.41,0,0,1-1.15-1.32c0-.65.58-1.41,1.15-1.4s1.1.78,1.07,1.42S64.08,65.06,63.53,65.07Z"/><path class="cls-2" d="M40.78,65.07a1.38,1.38,0,0,1,0-2.72c.57,0,1.1.78,1.07,1.42S41.33,65.06,40.78,65.07Z"/><path class="cls-2" d="M61.94,66.31a.67.67,0,0,1-.58-.6.66.66,0,0,1,.58-.64.63.63,0,0,1,0,1.24Z"/><path class="cls-2" d="M39.22,66.31a.67.67,0,0,1-.58-.6.66.66,0,0,1,.58-.64.63.63,0,0,1,0,1.24Z"/><path class="cls-10" d="M37.6,88.84c-1.06,0-2.13-2-2.17-3.72s1.09-4,2.17-4,2.08,2.19,2,4C39.57,86.81,38.65,88.82,37.6,88.84Z"/><path d="M118.39,91.7c7.75-10.18,9.44-4.38,9.44-4.38l2.66,4.89a6.52,6.52,0,0,1-.16,6.38c-2,3.54-1.16,8-7.68,6.08s-13.71,1.84-9.32-5.16"/><path d="M103.55,102.06c3.28-3.78,4-1.63,4-1.63l1.12,1.82a2.17,2.17,0,0,1-.07,2.38c-.82,1.32-.49,3-3.24,2.26s-5.79.68-3.94-1.92"/><path d="M91.26,57.89c7.11-.9,7,2.38,7,2.38L99,63.61a2.17,2.17,0,0,1-1.4,2.69c-2,.66-2.38,3-6.24-.85S82.1,60,86.38,59"/></svg>