<?xml version="1.0" encoding="UTF-8"?><svg xmlns="http://www.w3.org/2000/svg" width="245.64" height="130.08" xmlns:xlink="http://www.w3.org/1999/xlink" viewBox="0 0 245.64 130.08"><defs><style>.f{fill:url(#c);}.g{fill:#c69c6d;}.h{filter:url(#d);}.i{filter:url(#b);}</style><filter id="b"><feGaussianBlur in="SourceAlpha" result="blur" stdDeviation="2"/><feOffset dx="4" dy="4" in="blur" result="offsetBlurredAlpha"/><feMerge><feMergeNode in="offsetBlurredAlpha"/><feMergeNode in="SourceGraphic"/></feMerge></filter><radialGradient id="c" cx="-471.89" cy="1181.22" fx="-471.89" fy="1181.22" r="170.38" gradientTransform="translate(816.52 235.89) rotate(80.81) scale(.75 .56) skewX(4.82)" gradientUnits="userSpaceOnUse"><stop offset=".38" stop-color="#606060"/><stop offset=".57" stop-color="#5d5d5d"/><stop offset=".69" stop-color="#555"/><stop offset=".78" stop-color="#474747"/><stop offset=".87" stop-color="#333"/><stop offset=".94" stop-color="#191919"/><stop offset="1" stop-color="#000"/></radialGradient><filter id="d"><feGaussianBlur in="SourceAlpha" result="blur" stdDeviation="2"/><feOffset dx="4" dy="4" in="blur" result="offsetBlurredAlpha"/><feMerge><feMergeNode in="offsetBlurredAlpha"/><feMergeNode in="SourceGraphic"/></feMerge></filter></defs><g id="a"><g class="i"><ellipse class="f" cx="122.82" cy="65.04" rx="54.65" ry="115.17" transform="translate(50.41 183.67) rotate(-86.5)"/></g><g class="h"><path class="g" d="M45.04,44.01h36.66v9.18h-22.95v6.84h21.29v8.77h-21.29v8.48h23.61v9.74H45.04V44.01Z"/><path class="g" d="M86.72,44.01h15.07l7.84,13.23,7.62-13.23h14.92l-13.78,20.83,15.08,22.18h-15.37l-8.74-13.82-8.74,13.82h-15.28l15.27-22.41-13.88-20.6Z"/><path class="g" d="M138.38,44.01h13.71v43.01h-13.71V44.01Z"/><path class="g" d="M158.8,44.01h41.58v10.62h-13.95v32.39h-13.68V54.63h-13.95v-10.62Z"/></g></g><g id="e"/></svg>