<svg id="Layer_1" data-name="Layer 1" xmlns="http://www.w3.org/2000/svg" xmlns:xlink="http://www.w3.org/1999/xlink" width="1920" height="1080" viewBox="0 0 1920 1080"><defs><style>.cls-1{fill:url(#linear-gradient);}.cls-2{fill:url(#linear-gradient-2);}.cls-3{fill:url(#radial-gradient);}.cls-4{fill:#99af72;}.cls-5{fill:#fff;}.cls-6{fill:#37ad00;}.cls-7{fill:url(#radial-gradient-2);}.cls-8{fill:url(#radial-gradient-3);}.cls-9{fill:#71317d;}.cls-10{fill:url(#linear-gradient-3);}.cls-11{fill:url(#linear-gradient-4);}.cls-12{fill:url(#linear-gradient-5);}</style><linearGradient id="linear-gradient" x1="466.83" y1="838.3" x2="551.93" y2="838.3" gradientUnits="userSpaceOnUse"><stop offset="0.11" stop-color="#fff"/><stop offset="0.88" stop-color="#a9a8a8"/></linearGradient><linearGradient id="linear-gradient-2" x1="1020.58" y1="862.91" x2="1296.64" y2="862.91" gradientUnits="userSpaceOnUse"><stop offset="0.11" stop-color="#fff"/><stop offset="0.27" stop-color="#fafafa"/><stop offset="0.47" stop-color="#ebebeb"/><stop offset="0.69" stop-color="#d3d2d2"/><stop offset="0.91" stop-color="#b1b0b0"/><stop offset="0.96" stop-color="#a9a8a8"/></linearGradient><radialGradient id="radial-gradient" cx="871.1" cy="822.64" r="612.05" gradientTransform="translate(0 21.7) scale(1 1.01)" gradientUnits="userSpaceOnUse"><stop offset="0.34" stop-color="#caacee"/><stop offset="0.35" stop-color="#caacee"/><stop offset="0.7" stop-color="#caacee"/><stop offset="0.93" stop-color="#cc9ae0"/><stop offset="1" stop-color="#cd94db"/></radialGradient><radialGradient id="radial-gradient-2" cx="1522.67" cy="998.86" fx="1433.4867846466657" fy="1110.0023509680136" r="142.5" gradientTransform="matrix(1, 0, 0, 1, 0, 0)" xlink:href="#radial-gradient"/><radialGradient id="radial-gradient-3" cx="1263.12" cy="912.29" r="141.07" gradientTransform="matrix(1, 0, 0, 1, 0, 0)" xlink:href="#radial-gradient"/><linearGradient id="linear-gradient-3" x1="1638.75" y1="945.71" x2="1872.45" y2="945.71" gradientUnits="userSpaceOnUse"><stop offset="0" stop-color="#05f"/><stop offset="0.14" stop-color="#0052f7"/><stop offset="0.34" stop-color="#024ce2"/><stop offset="0.6" stop-color="#0340bf"/><stop offset="0.89" stop-color="#063190"/><stop offset="1" stop-color="#072a7b"/></linearGradient><linearGradient id="linear-gradient-4" x1="1526.51" y1="1015.11" x2="1754.39" y2="1015.11" xlink:href="#linear-gradient-3"/><linearGradient id="linear-gradient-5" x1="1018.38" y1="1071.75" x2="1241.76" y2="1071.75" xlink:href="#linear-gradient-3"/></defs><path class="cls-1" d="M500.79,959.81l-34-235.48s17.7-5.92,24.27-6.88c6.21-.91,26.87-.61,26.87-.61l34,235.48Z"/><path class="cls-2" d="M1020.58,1056.74,1179.18,647s28.44-10.45,38.39-11.81c135.24-18.51,56,48.92,56,48.92L1115,1093.85Z"/><path class="cls-3" d="M1579.2,774c-49.68-41-128-60.88-163.38-86-7-8.32-12.9-16.73-15.28-25-4.63-16-4.28-24.54-5.16-34-.4-4.34,1.42-36.67-7.18-37.82s-33.6,18.91-33.6,18.91c-7.43,6.45-29.06,7.4-39.89,4.6-23.24-6-24.42-23.54-32.08-33.78-9-12-2.55,30.58-25.55,122.1-17.88,71.12-42.91,127.52-46.48,135.19-27.93,59.93-65.74,116.66-139.54,151.41-94.73,44.62-279.55,83.8-424.78,25.4C513.4,961.68,519.15,851.54,504.93,813.63v0c-7.59-23-15.67-45.76-22.52-67.08-11.63-36.19,13.2-47.39,9.86-57.78-.95-3-44-13.89-66.35-7.1S387.85,706,385.56,706c-78.12,0-154.89,97.87-172,191.63a139.75,139.75,0,0,1-12.84,32.88c-13.42,24-52.1,47.59-64.52,62.45-26.13,31.25-97.2,83.36-86.49,109.28,2.87,6.94,69.55-1,75.23,3.83,26.9,22.85,196.34,15.48,245.59,15.48,51.66,0,491.2-12.44,546.82-12.44,98.62,0,442.45-22.6,435.72-31.47-20.86-27.54-93.88-103.86-122.39-180.88a133.28,133.28,0,0,0,.52-13.71c0-1.6-.48-.59,2.76-1.53,4.48-1.3,14.35-32.26,31.55-56,12.41-17.17,31.53-27.7,41.51-34.41,9.57-6.43,40.23-8.88,69.42-10.66,19.34,36.56,55.17,79,101.94,117.67,88.72,73.27,179.22,144.9,207.06,110.65S1667.92,847.29,1579.2,774Z"/><path class="cls-4" d="M1231.68,864.13c15.48-30.38,42.35-68.24,83.31-76.46,26.72-5.36,55.89-9.51,75.57-6.06,39.76,7,67.06,14,104.75,33.56,56.53,29.27,84.75,76.1,98.09,124.08,10.38,37.32,14.53,75.14-1.81,107.2-37.35,73.27-149.1,90.49-249.61,38.45S1194.33,937.41,1231.68,864.13Z"/><path d="M1494.54,812.7c5.45,3.86,34.91,19.89,45.65,31.95.89,1-.1-.51.07.5,1.72,9.88-1.5,10.85-4.3,20.25-12.67,42.48-63.47,65.15-113.47,50.64-15.63-4.54-46.64-20.6-62.52-41.78-21-28-17.44-66.33-13-84.63,2.49-10.28,42-14.83,69.62-9.26C1448,786.7,1489.35,809,1494.54,812.7Z"/><ellipse class="cls-5" cx="1418.96" cy="865.4" rx="16.25" ry="26.25" transform="translate(151.86 1940.96) rotate(-71.7)"/><path class="cls-6" d="M1351.74,786.33c-.55,3.64-.58,94.16,54.83,120.13,14.81,6.94,74,5.91,102.38-11.88,21.31-13.35,28-35.93,30.2-45.43.74-3.17.94-4.42,1.11-4,13.32,31.65-57.9,130.89-131,95-57.44-28.21-68.91-84.31-69-119.16,0-13.68,3-25.31,6.32-31.41C1349,785.1,1352.15,783.62,1351.74,786.33Z"/><path class="cls-7" d="M1446.54,1002.34c25-90.56,130.57-187,132.26-139.43,1.91,53.48,53.5,118.45,22,206.61-26.56,74.44-92.89,85.41-126.94,74S1420.23,1097.72,1446.54,1002.34Z"/><path class="cls-8" d="M1308.9,945.77c-6.74,39.36-15.35,87.43-34.43,89.7-11.62,1.38-22.27-14.82-32-30-18.47-28.81-55.42-86.45-30.92-144.62,19.19-45.54,71.94-81.7,95.92-69.38C1333.07,804.63,1321.72,870.91,1308.9,945.77Z"/><ellipse class="cls-9" cx="1332.84" cy="647.06" rx="5.56" ry="9.54" transform="translate(240.68 1648.23) rotate(-68.41)"/><path class="cls-10" d="M1685.32,761.74l-46.57,367.89a.23.23,0,0,0,.27.25l233.24-48.29a.23.23,0,0,0,.15-.34s-6.23-47-27.09-101.14c-16.34-42.42-46.31-90.79-58.3-114-20.34-39.38-101.28-104.44-101.28-104.44A.23.23,0,0,0,1685.32,761.74Z"/><polygon class="cls-11" points="1630 982.76 1526.51 933.2 1570.14 1062.36 1581.85 1097.03 1754.39 1071.75 1630 982.76"/><path class="cls-12" d="M1018.38,978.63s36.85,64.41,53.82,83.63c24.13,27.34,110.56,102.61,110.56,102.61l59-79.26Z"/></svg>