<svg id="Layer_1" data-name="Layer 1" xmlns="http://www.w3.org/2000/svg" xmlns:xlink="http://www.w3.org/1999/xlink" width="1920" height="1080" viewBox="0 0 1920 1080"><defs><style>.cls-1{fill:url(#linear-gradient);}.cls-2{fill:url(#linear-gradient-2);}.cls-3{fill:url(#radial-gradient);}.cls-4{fill:#d0e0c6;}.cls-5{fill:#fff;}.cls-6{fill:#37ad00;}.cls-7{fill:url(#radial-gradient-2);}.cls-8{fill:url(#radial-gradient-3);}.cls-9{fill:url(#linear-gradient-3);}.cls-10{fill:url(#linear-gradient-4);}.cls-11{fill:url(#linear-gradient-5);}.cls-12{fill:#71317d;}</style><linearGradient id="linear-gradient" x1="465.36" y1="843.61" x2="550.46" y2="843.61" gradientUnits="userSpaceOnUse"><stop offset="0.11" stop-color="#fff"/><stop offset="0.88" stop-color="#a9a8a8"/></linearGradient><linearGradient id="linear-gradient-2" x1="1019.11" y1="868.22" x2="1295.17" y2="868.22" gradientUnits="userSpaceOnUse"><stop offset="0.11" stop-color="#fff"/><stop offset="0.27" stop-color="#fafafa"/><stop offset="0.47" stop-color="#ebebeb"/><stop offset="0.69" stop-color="#d3d2d2"/><stop offset="0.91" stop-color="#b1b0b0"/><stop offset="0.96" stop-color="#a9a8a8"/></linearGradient><radialGradient id="radial-gradient" cx="869.63" cy="839.93" r="611.74" gradientTransform="translate(0 11) scale(1 1.01)" gradientUnits="userSpaceOnUse"><stop offset="0.34" stop-color="#ad7dee"/><stop offset="0.35" stop-color="#ad7dee"/><stop offset="0.7" stop-color="#ad7dee"/><stop offset="0.97" stop-color="#bf74dd"/><stop offset="1" stop-color="#c173db"/></radialGradient><radialGradient id="radial-gradient-2" cx="1532.2" cy="1004.5" r="118.97" gradientTransform="matrix(1, 0, 0, 1, 0, 0)" xlink:href="#radial-gradient"/><radialGradient id="radial-gradient-3" cx="1253.43" cy="904.31" r="101.78" gradientTransform="matrix(1.23, 0.03, 0.03, 1.05, -315.11, -70.85)" xlink:href="#radial-gradient"/><linearGradient id="linear-gradient-3" x1="1637.28" y1="951.02" x2="1870.98" y2="951.02" gradientUnits="userSpaceOnUse"><stop offset="0" stop-color="#05f"/><stop offset="0.14" stop-color="#0052f7"/><stop offset="0.34" stop-color="#024ce2"/><stop offset="0.6" stop-color="#0340bf"/><stop offset="0.89" stop-color="#063190"/><stop offset="1" stop-color="#072a7b"/></linearGradient><linearGradient id="linear-gradient-4" x1="1525.04" y1="1020.42" x2="1752.92" y2="1020.42" xlink:href="#linear-gradient-3"/><linearGradient id="linear-gradient-5" x1="1016.91" y1="1077.05" x2="1240.29" y2="1077.05" xlink:href="#linear-gradient-3"/></defs><path class="cls-1" d="M499.32,965.11l-34-235.47s17.7-5.92,24.27-6.88c6.21-.91,26.87-.61,26.87-.61l34,235.47Z"/><path class="cls-2" d="M1019.11,1062l158.6-409.74s28.44-10.45,38.39-11.81c135.24-18.51,56,48.93,56,48.93l-158.6,409.73Z"/><path class="cls-3" d="M1577.73,779.32c-49.68-41-128-60.87-163.38-86-7-8.32-12.9-16.72-15.28-25-4.63-16-5.28-42.53-6.16-52-.4-4.33-4.58-16.67-13.18-17.81s-21.6,8.91-21.6,8.91c-7.43,6.45-34.06,15.39-44.9,12.59-23.23-6-42.41-21.53-50.07-31.78-9-12-21.51,73.82-26.55,88.1-8.09,22.87-27.6,72.78-41.17,104.32a126.51,126.51,0,0,0-5.65,12.81,59.73,59.73,0,0,0-2.65,6.79c-8.14,20.81-32.44,82.81-36,90.48-27.93,59.93-31.87,65-119.54,107.85-23.11,11.29-99.17,19.92-132.39,19.92-59.74,0-100.7,4-156-5.73-16.14-2.83-38.63-10.31-56.67-16-5.55-2.38-11.45-4.86-17.75-7.44-29.93-12.28-66.11-25-96.93-52.38-29.85-26.5-54.2-80.17-68.42-118.08v0c-7.59-23-15.67-45.76-22.53-67.09-11.62-36.19,2-87.49-24.13-96.77-5.85-2.08-29.09,8-46.2,25.83-12,12.49-21.93,30.4-26.5,30.4-78.13,0-154.89,97.87-172,191.63a139.75,139.75,0,0,1-12.84,32.88c-13.42,24-52.11,47.6-64.53,62.46-26.12,31.25-97.19,83.36-86.48,109.27,2.87,6.94,69.55-1,75.23,3.83,26.9,22.85,196.34,15.48,245.59,15.48,51.66,0,491.2-12.43,546.82-12.43,98.62,0,442.45-22.6,435.72-31.48-20.86-27.54-93.89-103.86-122.39-180.87a133.41,133.41,0,0,0,.52-13.71c0-1.6-.48-.6,2.76-1.53,4.48-1.3,14.35-32.27,31.55-56,12.41-17.18,31.53-27.7,41.51-34.41,9.57-6.43,40.22-8.89,69.42-10.67,19.34,36.57,55.17,79.05,101.94,117.68,88.72,73.27,179.22,144.9,207.06,110.65S1666.45,852.59,1577.73,779.32Z"/><path class="cls-4" d="M1234.39,859.93c23.34-45.8,94.41-86.17,152.88-75.92,39.76,7,60.06-5.56,97.75,14,100.51,52,146.63,171,109.28,244.28s-149.1,90.49-249.6,38.45S1197,933.2,1234.39,859.93Z"/><path d="M1465.49,790.05c6.45,1.72,25.84,9.29,39.29,18.23,1.11.74-.24-.47.19.46,4.17,9.13,1.3,10.88,1,20.68-1.49,44.31-44.89,79.12-96.94,77.75-16.26-.43-50.33-8.11-71.06-24.57-27.39-21.75-42.69-68.46-31.78-83.81,9-12.66,30.64-14.79,58.75-16.39C1396.88,780.58,1448.91,785.6,1465.49,790.05Z"/><ellipse class="cls-5" cx="1392.76" cy="859.08" rx="16.25" ry="26.25" transform="translate(447.56 2194.89) rotate(-86.38)"/><path class="cls-6" d="M1307.7,799.62c.39,3.66,23.3,91.23,83.47,102.31,16.1,3,73.06-13,96-37.44,17.23-18.31,17.93-41.84,17.69-51.59-.07-3.25-.21-4.52.07-4.16C1525.87,836,1482.13,950,1402.3,933.83c-62.71-12.72-88-64.09-97-97.77-3.51-13.22-3.54-25.24-1.85-32C1304.72,799.13,1307.4,796.9,1307.7,799.62Z"/><path class="cls-7" d="M1473.07,999.64c19.07-73.34,116.57-179,118.26-131.42,1.9,53.47,39.5,118.45,8,206.61-26.56,74.44-92.89,85.4-126.94,74S1454.47,1071.21,1473.07,999.64Z"/><path class="cls-8" d="M1283.35,899.41c-8.66,90.15-18.14,103.73-28.35,106.59-9,2.51-17.77-3.46-23-7-29.89-20.26-34.34-70.53-25-106,13.24-50.31,59.52-91,76-83C1291.37,814.05,1288.81,842.56,1283.35,899.41Z"/><path class="cls-9" d="M1683.85,767.05l-46.57,367.88a.22.22,0,0,0,.27.25l233.24-48.29a.22.22,0,0,0,.15-.34s-6.23-47-27.09-101.14c-16.34-42.41-46.31-90.79-58.3-114C1765.21,832,1684.27,767,1684.27,767A.23.23,0,0,0,1683.85,767.05Z"/><polygon class="cls-10" points="1628.53 988.07 1525.04 938.5 1568.67 1067.66 1580.38 1102.33 1752.92 1077.05 1628.53 988.07"/><path class="cls-11" d="M1016.91,983.93s36.85,64.42,53.82,83.64c24.13,27.34,110.56,102.6,110.56,102.6l59-79.25Z"/><ellipse class="cls-12" cx="1331.37" cy="652.37" rx="5.56" ry="9.54" transform="translate(234.81 1650.21) rotate(-68.41)"/></svg>