<?xml version="1.0" encoding="UTF-8"?><svg xmlns="http://www.w3.org/2000/svg" width="1920" height="1080" xmlns:xlink="http://www.w3.org/1999/xlink" viewBox="0 0 1920 1080"><defs><style>.j{fill:url(#e);}.k{fill:url(#d);}.l{fill:url(#g);}.m{fill:url(#f);}.n{fill:url(#i);}.o{fill:url(#h);}.p{fill:url(#c);}.q{fill:#fff;}.r{fill:#71317d;}.s{fill:#37ad00;}</style><linearGradient id="c" x1="720.39" y1="1095.14" x2="464.23" y2="853.42" gradientTransform="matrix(1, 0, 0, 1, 0, 0)" gradientUnits="userSpaceOnUse"><stop offset="0" stop-color="#aa0050"/><stop offset=".19" stop-color="#b01158"/><stop offset=".56" stop-color="#c23f6f"/><stop offset=".64" stop-color="#c74a75"/></linearGradient><linearGradient id="d" x1="375.56" y1="864.61" x2="455.37" y2="864.61" gradientTransform="translate(-563.95 74.19) rotate(-24) scale(1.36 1.41) skewX(.62)" gradientUnits="userSpaceOnUse"><stop offset=".11" stop-color="#fff"/><stop offset=".88" stop-color="#a9a8a8"/></linearGradient><linearGradient id="e" x1="1075.62" y1="822.55" x2="1333.33" y2="822.55" gradientTransform="matrix(1, 0, 0, 1, 0, 0)" gradientUnits="userSpaceOnUse"><stop offset=".11" stop-color="#fff"/><stop offset=".27" stop-color="#f9f9f9"/><stop offset=".47" stop-color="#ebeaea"/><stop offset=".69" stop-color="#d2d2d2"/><stop offset=".91" stop-color="#b0afaf"/><stop offset=".96" stop-color="#a9a8a8"/></linearGradient><radialGradient id="f" cx="981.94" cy="842.14" fx="981.94" fy="842.14" r="652.24" gradientTransform="translate(2.38 61.72) scale(.95)" gradientUnits="userSpaceOnUse"><stop offset=".34" stop-color="#a0e"/><stop offset=".35" stop-color="#a0e"/><stop offset=".7" stop-color="#a0e"/><stop offset=".82" stop-color="#ba00dc"/><stop offset="1" stop-color="#db00bb"/></radialGradient><linearGradient id="g" x1="1627.05" y1="922.8" x2="1845.21" y2="922.8" gradientTransform="translate(-34.49 -167.66) rotate(1.79) scale(1.01 1.15) skewX(3.83)" gradientUnits="userSpaceOnUse"><stop offset="0" stop-color="#05f"/><stop offset=".14" stop-color="#0052f7"/><stop offset=".34" stop-color="#014be2"/><stop offset=".6" stop-color="#0340bf"/><stop offset=".89" stop-color="#05308f"/><stop offset="1" stop-color="#072a7b"/></linearGradient><linearGradient id="h" x1="1522.27" y1="1023.21" x2="1735.01" y2="1023.21" gradientTransform="matrix(1, 0, 0, 1, 0, 0)" xlink:href="#g"/><linearGradient id="i" x1="1047.91" y1="1039.54" x2="1256.44" y2="1039.54" gradientTransform="translate(-331.89 -249.01) rotate(6.78) scale(1.2 1.08) skewX(12.75)" xlink:href="#g"/></defs><g id="a"/><g id="b"><path class="p" d="M477.65,989.11c1.67-34.16-37.44-123.8,15.81-119,40.77,3.67,78.56,54.56,103.36,67.26,111.52,57.1,173.17,56.71,213.05,94.99,35.77,34.33-59.55,57.43-158.08,52.6-98.53-4.83-176.5-47.74-174.14-95.85Z"/><g><path class="k" d="M517.61,1102.2l-168.54-262.8s17.32-16.07,24.42-20.57c6.72-4.26,30.89-14.44,30.89-14.44l168.54,262.8-55.32,35.01Z"/><path class="j" d="M1075.62,1002.08l148.06-379.52s26.55-9.68,35.84-10.94c126.26-17.14,52.28,45.32,52.28,45.32l-148.06,379.52-88.11-34.38Z"/><path class="m" d="M1571.46,763.77c-46.38-38-119.5-56.39-152.52-79.63-6.57-7.71-12.04-15.49-14.27-23.14-4.32-14.85-4.93-39.4-5.75-48.14-.38-4.02-4.28-15.44-12.3-16.5-8.02-1.06-20.17,8.25-20.17,8.25-6.94,5.97-81.5-8.28-88.66-17.77-8.37-11.09-20.07,68.38-24.79,81.6-7.55,21.18-56.46,153.68-59.8,160.79-26.07,55.51-49.75,98.02-131.59,137.69-21.58,10.46-76.22,45.2-149.74,47.52-74.14,2.34-254.62-1.62-365.8-35.37-113.64-34.5-157.32-166.45-206.9-196.05-28.72-17.15-45.46,55.72-42.52,88.37,3.03,33.64,5.43,38.27-1.51,52.36-11.12,22.55-33.54,19.46-75.64,42.24-14.97,8.1-50.91,28.03-79,67-20.4,28.31-27.04,53.33-32,72-4.31,16.26-6.4,24.5-2.9,30.2,12.79,20.83,86.73-42.69,126.23-9.41,25.12,21.16,163.3,0,209.27,0H960c92.06,0,812.62-14.6,806.35-22.82-19.48-25.51-452.95-225.22-450.85-226.98,10.41-8.69,15.61-13.03,31-40,7.82-13.71,26.05-28.96,72-35,13.9,21.49,33.19,48.6,58.83,77.66,101.82,115.41,261.67,213.12,288.1,180.86,25.99-31.72-111.14-227.88-193.97-295.75Z"/><path class="q" d="M1255.93,868.43c21.79-42.42,88.14-79.81,142.72-70.32,37.12,6.45,56.07-5.15,91.26,12.93,93.82,48.2,136.88,158.39,102.01,226.26-34.87,67.87-139.19,83.82-233.02,35.62-93.82-48.2-137.84-136.61-102.98-204.48Z"/><path class="s" d="M1289.55,832.09c1.04,3.25,40.26,71.52,97.37,70.49,15.27-.27,62.42-18.28,78.91-44.67,12.37-19.79,8.64-41.28,6.61-50.1-.67-2.94-1.03-4.06-.71-3.78,24.18,20.88,5.33,132.46-70.71,132.46-59.74,0-92.44-41.97-106.86-70.9-5.66-11.36-7.92-22.26-7.63-28.7,.21-4.71,2.25-7.23,3.02-4.81Z"/><path d="M1420.07,795.72c6.15,.99,37.43,2.29,51.4,7.93,1.16,.47-.3-.39,.26,.38,5.51,7.51,3.21,9.64,4.72,18.59,6.87,40.49-21.38,76.08-69.25,84.43-14.96,2.61-36.9,3.73-58.92-7.4-29.1-14.7-57.56-45.85-61.38-62.88-2.14-9.56,29.11-29.49,54.53-36.12,28.91-7.54,72.77-5.89,78.64-4.94Z"/><ellipse class="q" cx="1378.42" cy="870.39" rx="24.51" ry="15.06" transform="translate(-104.43 193.05) rotate(-7.72)"/><path class="l" d="M1670.46,752.43l-33.04,391.53c-.01,.17,.12,.31,.26,.28l217.74-44.73c.14-.03,.21-.21,.13-.36,0,0-7.22-50.37-28.4-108.82-16.59-45.78-46.16-98.32-58.1-123.47-20.25-42.65-98.2-114.52-98.2-114.52-.11-.2-.37-.15-.39,.08Z"/><polygon class="o" points="1618.88 978.98 1522.27 911.21 1563 1087.8 1573.93 1135.2 1735.01 1100.64 1618.88 978.98"/><path class="n" d="M1047.91,953.29s49.31,70.84,70.64,92.77c30.34,31.19,136.07,119.69,136.07,119.69l55.08-73.41-261.78-139.04Z"/><ellipse class="r" cx="1340.59" cy="641.66" rx="5.15" ry="8.9" transform="translate(256.06 1657.88) rotate(-68.72)"/></g></g></svg>