<?xml version="1.0" encoding="UTF-8"?><svg xmlns="http://www.w3.org/2000/svg" width="400" height="150" xmlns:xlink="http://www.w3.org/1999/xlink" viewBox="0 0 400 150"><defs><style>.d{fill:#d9e021;}.e{filter:url(#c);}</style><filter id="c"><feGaussianBlur in="SourceAlpha" result="blur" stdDeviation="2"/><feOffset dx="4" dy="4" in="blur" result="offsetBlurredAlpha"/><feMerge><feMergeNode in="offsetBlurredAlpha"/><feMergeNode in="SourceGraphic"/></feMerge></filter></defs><g id="a"/><g id="b"><g class="e"><path class="d" d="M50.08,18.52c.75,0,3-.4,3,2.29,0,1.08-4,19.92-4.82,19.92-1.06,0-2.94-6.33-9.07-6.33-4.32,0-8.88,5.52-8.88,18.44,0,8.07,.19,10.63,2,10.63,4.07,0,4.44-6.19,12.7-6.19,.69,0,2.13,0,2.13,2.29,0,.67-2.44,21.67-3.5,21.67-.63,0-2.31-1.88-4.75-1.88-5.5,0-8.26,6.86-8.26,17.9,0,11.71,2.5,30.55,2.44,32.03,.06,1.61-1.5,1.21-2.06,1.21h-7.38c-1.56,0-3.44,2.56-3.44-47.91,0-66.48,3.25-64.06,4.32-64.06h25.58Z"/><path class="d" d="M57.09,130.48c-3.32,.27-2.31-4.44-2.63-31.76,0-18.03,3.44-80.2,5.25-80.2h24.65c.75,0,3-.4,3,2.29,0,1.08-4,19.92-4.82,19.92-1.06,0-2.94-6.33-9.07-6.33-4.32,0-8.88,5.52-8.88,18.44,0,2.83,.25,7.67,2,7.67,2,0,6.44-6.32,11.7-6.32,.75,0,2.81,.54,2.81,2.83,0,.13-3.5,22.07-4.25,22.07-.63,0-3-2.69-5.44-2.69-3.19,0-7.82,4.98-7.82,18.3,0,10.77,2.63,18.57,7.88,18.57,6.19,0,10.01-8.88,11.51-8.88,.94,0,5.13,22.74,5.13,24.09,0,2.56-1.56,2.02-2.31,2.02h-28.71Z"/><path class="d" d="M94.43,130.48c-3.32,.27-2.31-4.44-2.63-31.76,0-18.03,3.44-80.2,5.25-80.2h24.65c.75,0,3-.4,3,2.29,0,1.08-4,19.92-4.82,19.92-1.06,0-2.94-6.33-9.07-6.33-4.32,0-8.88,5.52-8.88,18.44,0,2.83,.25,7.67,2,7.67,2,0,6.44-6.32,11.7-6.32,.75,0,2.81,.54,2.81,2.83,0,.13-3.5,22.07-4.25,22.07-.63,0-3-2.69-5.44-2.69-3.19,0-7.82,4.98-7.82,18.3,0,10.77,2.63,18.57,7.88,18.57,6.19,0,10.01-8.88,11.51-8.88,.94,0,5.13,22.74,5.13,24.09,0,2.56-1.56,2.02-2.31,2.02h-28.71Z"/><path class="d" d="M132.59,130.48c-1.56,0-3.44,2.56-3.44-47.91,0-66.48,3.25-64.06,4.32-64.06h10.63c7.94,0,22.27,18.71,22.27,69.17,0,23.28-4.94,42.79-17.58,42.79h-16.2Zm6.32-51c0,30.28,4.13,33.78,7.63,33.78s9.7-6.86,9.7-31.09c0-33.24-8.01-47.77-12.07-47.77-4.38,0-5.25,17.36-5.25,25.84v19.24Z"/><path class="d" d="M187.64,77.6c0-29.2,7.63-61.1,22.83-61.1,5.44,0,13.82,4.98,13.82,19.51,0,7.81-2.5,12.25-6.44,12.25-2.56,0,.88-12.65-7.07-12.65-9.13,0-13.01,20.05-13.01,36.87,0,25.7,8.13,36.06,13.57,36.06,10.2,0,11.07-19.65,11.64-19.65,.88,0,1.38,10.77,1.38,12.11,0,19.92-7.13,31.49-15.89,31.49-14.2,0-20.83-27.72-20.83-54.9Z"/><path class="d" d="M250.44,18.52c11.64,0,14.58,13.73,14.58,25.16,0,21.53-9.38,28.13-9.38,31.89s11.26,21.4,11.26,53.16c0,1.48-.25,1.75-1.56,1.75h-7.07c-1.13,0-3.07,.4-3.07-1.75,0-15.21-5-42.52-8.63-42.52-1.88,0-6.44,5.52-6.44,13.05,0,10.23,2.31,28.66,2.31,29.61,0,2.29-1.56,1.61-2.19,1.61h-7.26c-1.56,0-3.44,2.56-3.44-47.91,0-66.48,3.25-64.06,4.32-64.06h16.58Zm4.44,27.45c0-8.48-3.69-11.57-7.07-11.57-5.69,0-8.19,4.44-8.13,27.72,0,2.83,.06,8.21,1.94,8.21,2.13,0,13.26-11.98,13.26-24.36Z"/><path class="d" d="M273.71,130.48c-3.32,.27-2.31-4.44-2.63-31.76,0-18.03,3.44-80.2,5.25-80.2h24.65c.75,0,3-.4,3,2.29,0,1.08-4,19.92-4.82,19.92-1.06,0-2.94-6.33-9.07-6.33-4.32,0-8.88,5.52-8.88,18.44,0,2.83,.25,7.67,2,7.67,2,0,6.44-6.32,11.7-6.32,.75,0,2.81,.54,2.81,2.83,0,.13-3.5,22.07-4.25,22.07-.63,0-3-2.69-5.44-2.69-3.19,0-7.82,4.98-7.82,18.3,0,10.77,2.63,18.57,7.88,18.57,6.19,0,10.01-8.88,11.51-8.88,.94,0,5.13,22.74,5.13,24.09,0,2.56-1.56,2.02-2.31,2.02h-28.71Z"/><path class="d" d="M311.06,130.48c-3.32,.27-2.31-4.44-2.63-31.76,0-18.03,3.44-80.2,5.25-80.2h24.65c.75,0,3-.4,3,2.29,0,1.08-4,19.92-4.82,19.92-1.06,0-2.94-6.33-9.07-6.33-4.32,0-8.88,5.52-8.88,18.44,0,2.83,.25,7.67,2,7.67,2,0,6.44-6.32,11.7-6.32,.75,0,2.81,.54,2.81,2.83,0,.13-3.5,22.07-4.25,22.07-.63,0-3-2.69-5.44-2.69-3.19,0-7.82,4.98-7.82,18.3,0,10.77,2.63,18.57,7.88,18.57,6.19,0,10.01-8.88,11.51-8.88,.94,0,5.13,22.74,5.13,24.09,0,2.56-1.56,2.02-2.31,2.02h-28.71Z"/><path class="d" d="M349.22,130.48c-1.56,0-3.44,2.56-3.44-47.91,0-66.48,3.25-64.06,4.32-64.06h10.63c7.94,0,22.27,18.71,22.27,69.17,0,23.28-4.94,42.79-17.58,42.79h-16.2Zm6.32-51c0,30.28,4.13,33.78,7.63,33.78s9.7-6.86,9.7-31.09c0-33.24-8.01-47.77-12.07-47.77-4.38,0-5.25,17.36-5.25,25.84v19.24Z"/></g></g></svg>