<svg id="Layer_1" data-name="Layer 1" xmlns="http://www.w3.org/2000/svg" width="140" height="200" viewBox="0 0 140 200"><defs><style>.cls-1{fill:#ebebeb;}.cls-2{fill:#6b4d4e;}.cls-3{fill:#4f3d3b;}</style></defs><path class="cls-1" d="M82.94,102.77c-1.66-1.15-3.13-2.54-3.23-3.92-.09-1.19,1.86-3,3.63-4.38,20.13-7.35,35.11-28.67,35.11-50.73,0-27.28-21.23-23.35-48.45-23.35S19.87,16.46,19.87,43.74c0,23.69,16,46.52,38.05,52.12,1.17,1.22,2.18,2.51,2.22,3.41a3.27,3.27,0,0,1-1.24,2.49c-22.11,5.54-38.19,28.42-38.19,52.16,0,27.28,22.91,23.36,50.13,23.36,20.41,0,37.46,2.21,44.71-8.2,2.41-3.47,3.74-8.34,3.74-15.16C119.29,131.41,103.69,109.68,82.94,102.77Z"/><rect class="cls-2" width="140" height="29.77" rx="14.88"/><path class="cls-3" d="M1.56,21.72s91.45-.12,124-.12c3.75,0,7.47-7.38,7.27-9.45C132.14,4.6,126,0,126,0c7.71,0,14,6.66,14,14.88h0c0,8.22-6.25,14.89-14,14.89H14C6.25,29.77,1.56,21.72,1.56,21.72Z"/><rect class="cls-2" y="170.23" width="140" height="29.77" rx="14.88"/><path class="cls-3" d="M1.56,192s91.45-.13,124-.13c3.75,0,7.47-7.38,7.27-9.45-.72-7.55-6.82-12.15-6.82-12.15,7.71,0,14,6.67,14,14.89h0c0,8.22-6.25,14.88-14,14.88H14C6.25,200,1.56,192,1.56,192Z"/></svg>