<?xml version="1.0" encoding="UTF-8"?><svg xmlns="http://www.w3.org/2000/svg" width="320" height="130.75" xmlns:xlink="http://www.w3.org/1999/xlink" viewBox="0 0 320 130.75"><defs><style>.e{fill:url(#c);}.f{fill:url(#b);}.g{fill:#2b2b2b;}.h{fill:#282828;}</style><radialGradient id="b" cx="-890.68" cy="2476.96" fx="-890.68" fy="2476.96" r="206.87" gradientTransform="translate(470.64 -877.49) rotate(-1.1) scale(.41 .39) skewX(-2.14)" gradientUnits="userSpaceOnUse"><stop offset=".4" stop-color="#999"/><stop offset=".55" stop-color="#969696"/><stop offset=".62" stop-color="#8f8f8f"/><stop offset=".67" stop-color="#828282"/><stop offset=".68" stop-color="gray"/><stop offset=".74" stop-color="#747474"/><stop offset=".82" stop-color="#606060"/><stop offset=".86" stop-color="#5c5c5c"/><stop offset=".9" stop-color="#505050"/><stop offset=".93" stop-color="#3c3c3c"/><stop offset=".97" stop-color="#212121"/><stop offset="1" stop-color="#000"/></radialGradient><radialGradient id="c" cx="-367.22" cy="958.32" fx="-367.22" fy="958.32" r="170.38" gradientTransform="translate(805.57 180.8) rotate(79.65) scale(.74 .6) skewX(3.95)" xlink:href="#b"/></defs><g id="a"><g><g><path class="f" d="M145.96,59.61s-6.8,20.52-53.9,35.59c-47.1,15.06-82.06-4-82.06-4,7.41,22.84,56.89,37.9,110.62,33.36,46.96-3.97,32.75-42.11,25.34-64.95Z"/><ellipse class="e" cx="196.5" cy="65.07" rx="59.29" ry="113.71" transform="translate(117.58 256.43) rotate(-85.91)"/><g><path class="h" d="M123.3,49.28h36.67v9.3h-22.96v6.92h21.3v8.89h-21.3v8.59h23.62v9.87h-37.34V49.28Z"/><path class="h" d="M164.99,49.28h15.07l7.84,13.4,7.63-13.4h14.92l-13.78,21.1,15.08,22.47h-15.38l-8.75-14-8.75,14h-15.29l15.28-22.7-13.89-20.86Z"/><path class="h" d="M216.67,49.28h13.71v43.56h-13.71V49.28Z"/><path class="h" d="M237.09,49.28h41.6v10.76h-13.96v32.81h-13.68V60.03h-13.96v-10.76Z"/></g></g><g><path class="g" d="M136.74,36.39v-3.5h9.65v7.18c-1.85,1.05-3.48,1.76-4.9,2.14s-3.11,.57-5.05,.57c-2.4,0-4.36-.34-5.87-1.02-1.51-.68-2.68-1.7-3.52-3.04s-1.25-2.89-1.25-4.64c0-1.84,.45-3.44,1.37-4.8,.91-1.36,2.24-2.39,4-3.1,1.37-.54,3.21-.82,5.53-.82s3.9,.17,5.01,.51c1.11,.34,2.03,.86,2.76,1.57,.73,.71,1.28,1.61,1.65,2.69l-6.03,.9c-.25-.64-.67-1.12-1.26-1.46-.59-.34-1.35-.51-2.27-.51-1.37,0-2.46,.4-3.28,1.19s-1.22,2.05-1.22,3.76c0,1.82,.41,3.12,1.23,3.91,.82,.78,1.97,1.17,3.44,1.17,.7,0,1.37-.08,2-.25s1.36-.46,2.18-.86v-1.59h-4.18Z"/><path class="g" d="M150.19,42.49V25.65h10.41c1.93,0,3.41,.14,4.43,.41,1.02,.28,1.84,.79,2.47,1.53,.62,.75,.94,1.66,.94,2.73,0,.93-.24,1.74-.72,2.42-.48,.68-1.14,1.23-1.97,1.65-.53,.27-1.26,.49-2.19,.67,.74,.21,1.29,.41,1.63,.62,.23,.14,.56,.43,1,.89,.44,.45,.73,.8,.87,1.05l3.03,4.88h-7.06l-3.34-5.15c-.42-.67-.8-1.1-1.13-1.3-.45-.26-.96-.39-1.53-.39h-.55v6.84h-6.27Zm6.27-10.02h2.63c.29,0,.84-.08,1.66-.23,.41-.07,.75-.25,1.01-.53s.39-.61,.39-.98c0-.54-.21-.96-.62-1.25-.41-.29-1.19-.44-2.33-.44h-2.74v3.42Z"/><path class="g" d="M170.8,34.08c0-2.75,.92-4.89,2.76-6.42s4.4-2.3,7.68-2.3,5.96,.75,7.78,2.26c1.82,1.5,2.73,3.61,2.73,6.32,0,1.97-.4,3.58-1.19,4.84-.8,1.26-1.94,2.24-3.45,2.94-1.5,.7-3.38,1.05-5.62,1.05s-4.17-.3-5.66-.91-2.71-1.56-3.63-2.87c-.93-1.31-1.39-2.95-1.39-4.92Zm6.25,.02c0,1.7,.38,2.92,1.14,3.66s1.79,1.11,3.1,1.11,2.38-.36,3.12-1.09,1.1-2.03,1.1-3.92c0-1.59-.38-2.74-1.15-3.47s-1.81-1.1-3.12-1.1-2.27,.37-3.03,1.11c-.76,.74-1.14,1.97-1.14,3.69Z"/><path class="g" d="M194.03,36.92l5.94-.31c.13,.8,.39,1.42,.79,1.84,.64,.68,1.56,1.02,2.76,1.02,.89,0,1.58-.17,2.06-.52s.72-.75,.72-1.21-.23-.83-.69-1.17c-.46-.34-1.53-.67-3.2-.98-2.74-.51-4.69-1.19-5.86-2.05-1.18-.85-1.77-1.93-1.77-3.25,0-.87,.3-1.68,.9-2.45,.6-.77,1.51-1.37,2.72-1.81,1.21-.44,2.87-.66,4.97-.66,2.58,0,4.55,.4,5.91,1.2,1.36,.8,2.16,2.07,2.42,3.82l-5.89,.29c-.16-.76-.49-1.31-.99-1.65-.5-.34-1.19-.52-2.08-.52-.73,0-1.27,.13-1.64,.39s-.55,.57-.55,.94c0,.27,.15,.51,.45,.72,.29,.22,.99,.43,2.1,.62,2.73,.49,4.69,.99,5.87,1.49s2.04,1.12,2.58,1.87,.81,1.57,.81,2.49c0,1.08-.36,2.08-1.08,2.99-.72,.91-1.72,1.6-3.01,2.07-1.29,.47-2.91,.71-4.87,.71-3.44,0-5.82-.55-7.14-1.65-1.32-1.1-2.07-2.5-2.25-4.2Z"/><path class="g" d="M214.42,36.92l5.94-.31c.13,.8,.39,1.42,.79,1.84,.64,.68,1.56,1.02,2.76,1.02,.89,0,1.58-.17,2.06-.52s.72-.75,.72-1.21-.23-.83-.69-1.17c-.46-.34-1.53-.67-3.2-.98-2.74-.51-4.69-1.19-5.86-2.05-1.18-.85-1.77-1.93-1.77-3.25,0-.87,.3-1.68,.9-2.45,.6-.77,1.51-1.37,2.72-1.81,1.21-.44,2.87-.66,4.97-.66,2.58,0,4.55,.4,5.91,1.2,1.36,.8,2.16,2.07,2.42,3.82l-5.89,.29c-.16-.76-.49-1.31-.99-1.65-.5-.34-1.19-.52-2.08-.52-.73,0-1.27,.13-1.64,.39s-.55,.57-.55,.94c0,.27,.15,.51,.45,.72,.29,.22,.99,.43,2.1,.62,2.73,.49,4.69,.99,5.87,1.49s2.04,1.12,2.58,1.87,.81,1.57,.81,2.49c0,1.08-.36,2.08-1.08,2.99-.72,.91-1.72,1.6-3.01,2.07-1.29,.47-2.91,.71-4.87,.71-3.44,0-5.82-.55-7.14-1.65-1.32-1.1-2.07-2.5-2.25-4.2Z"/><path class="g" d="M235.55,37.8h6v4.69h-6v-4.69Z"/><path class="g" d="M244.96,37.8h6v4.69h-6v-4.69Z"/><path class="g" d="M254.36,37.8h6v4.69h-6v-4.69Z"/></g></g></g><g id="d"/></svg>