<?xml version="1.0" encoding="UTF-8"?><svg xmlns="http://www.w3.org/2000/svg" width="356.89" height="57.8" xmlns:xlink="http://www.w3.org/1999/xlink" viewBox="0 0 356.89 57.8"><defs><style>.d{fill:blue;}.e{filter:url(#b);}</style><filter id="b"><feGaussianBlur in="SourceAlpha" result="blur" stdDeviation="2"/><feOffset dx="4" dy="4" in="blur" result="offsetBlurredAlpha"/><feMerge><feMergeNode in="offsetBlurredAlpha"/><feMergeNode in="SourceGraphic"/></feMerge></filter></defs><g id="a"><g class="e"><path class="d" d="M20.54,48.85c-2.35,0-2.09-15.69-2.09-16.77,0-2.2-.27-23.18,2.76-23.18h7.2c.87,0,1.61,.28,1.61,1.03,0,.94-2.42,5.24-2.49,17.42,0,1.64,0,3.75,.87,3.75,2.29,0,8.41-6.18,8.41-11.24,0-1.17,.67-.98,2.09-.98h4.1c1.35,0,2.89-.28,2.89,1.03,0,6.46-7.33,10.68-7.33,11.61,0,.98,2.76,1.73,5.52,4.12,2.76,2.39,5.52,6.37,5.52,11.94,0,1.41-1.28,1.26-2.96,1.26h-5.45c-1.82,0-2.42,.05-2.49-1.45-.07-6.46-4.44-11.66-6.46-11.66-.87,0-3.97,.7-3.97,2.95,0,5.71,1.68,8.76,1.68,9.6,0,.51-.67,.56-1.68,.56h-7.74Z"/><path class="d" d="M67.96,29.37c1.95-.23,3.5-.47,3.5-2.01,0-2.39-3.57-3.65-6.53-3.65-6.86,0-5.85,4.03-7.33,4.03-2.15,0-4.51-1.83-4.51-3.84,0-3.47,5.58-5.71,11.77-5.71,2.15,0,11.37-.05,14.8,6.51,1.41,2.72,1.55,16.58,1.55,18.22,0,2.06,.54,3.28,.54,4.87,0,.98-6.32,1.08-12.31,1.08-16.21,0-17.36-5.81-17.36-8.62,0-5.9,8.34-9.98,15.88-10.86Zm4.17,8.2c0-1.64,.4-3.61-2.83-3.61-3.97,0-8.14,2.34-8.14,5.2,0,2.62,3.3,4.17,6.86,4.17,3.97,0,4.1-1.41,4.1-3.7v-2.06Z"/><path class="d" d="M91.71,48.85c-2.49,0-3.7,1.45-3.7-14.05,0-12.97-.54-15.88,1.34-15.92h5.58c1.01,0,2.22-.23,2.29,.66,.13,.7,.27,1.59,1.61,1.59,1.01,0,2.15-.75,3.57-1.5,1.41-.7,3.03-1.45,4.84-1.45,3.43,0,6.26,2.06,6.26,4.59,0,3.28-3.83,5.25-5.85,5.25-.81,0,.13-3.14-4.51-3.14-5.65,0-6.05,6.32-6.05,9.13,0,9.32,2.29,13.25,2.29,14.1-.07,.75-1.55,.75-2.29,.75h-5.38Z"/><path class="d" d="M122.58,48.85c-2.29,0-3.7,1.5-3.7-12.36,0-19.72-.87-19.11,8.27-19.11,1.41,0,2.89,.05,2.89,.75,0,.56-.81,1.45-.81,2.11,0,.47,.67,.8,1.34,.8,.81,0,1.75-.56,3.23-1.08,1.48-.56,3.5-1.08,6.32-1.08,3.3,0,5.45,2.15,7.13,2.15,.94,0,2.29-.14,3.97-.84,1.68-.66,3.77-1.31,6.19-1.31,12.38,0,12.11,11.29,12.11,17.28,0,14.28-2.56,12.69-4.51,12.69h-4.57c-.67,0-2.56,.09-2.56-.75s2.56-5.99,2.56-13.82c0-8.94-4.57-9.88-7.13-9.88-2.35,0-4.57-.14-4.57,7.59,0,16.81-.34,16.86-2.49,16.86h-6.05c-1.28,0-2.35,.19-2.35-.47,0-.7,2.56-10.12,2.56-14.56,0-2.81,0-9.41-5.52-9.41-5.05,0-6.93,4.31-6.93,11.29,0,9.41,1.88,11.19,1.88,12.5,0,.8-1.21,.66-1.95,.66h-5.31Z"/><path class="d" d="M190.73,29.37c1.95-.23,3.5-.47,3.5-2.01,0-2.39-3.57-3.65-6.53-3.65-6.86,0-5.85,4.03-7.33,4.03-2.15,0-4.51-1.83-4.51-3.84,0-3.47,5.58-5.71,11.77-5.71,2.15,0,11.37-.05,14.8,6.51,1.41,2.72,1.55,16.58,1.55,18.22,0,2.06,.54,3.28,.54,4.87,0,.98-6.32,1.08-12.31,1.08-16.21,0-17.36-5.81-17.36-8.62,0-5.9,8.34-9.98,15.88-10.86Zm4.17,8.2c0-1.64,.4-3.61-2.83-3.61-3.97,0-8.14,2.34-8.14,5.2,0,2.62,3.3,4.17,6.86,4.17,3.97,0,4.1-1.41,4.1-3.7v-2.06Z"/><path class="d" d="M233.78,17.47c0-8.76,4.04-8.29,8.41-8.29,1.48,0,10.16-.23,10.16,.56,0,3.04-10.63-1.03-10.63,7.17,0,2.72,.81,4.68,.81,7.54,0,3.14-4.44,4.12-4.44,4.59s4.44,1.45,4.44,4.59c0,2.86-.81,4.82-.81,7.49,0,8.2,10.63,4.12,10.63,7.17,0,.8-8.68,.56-10.16,.56-4.37,0-8.41,.47-8.41-8.29,0-12.83-5.65-10.58-5.65-11.52s5.65,1.31,5.65-11.57Z"/><path class="d" d="M332.79,40.56c0,8.76-4.04,8.29-8.41,8.29-1.48,0-10.16,.23-10.16-.56,0-3.04,10.63,1.03,10.63-7.17,0-2.67-.81-4.64-.81-7.49,0-3.14,4.44-4.12,4.44-4.59s-4.44-1.45-4.44-4.59c0-2.86,.81-4.82,.81-7.54,0-8.2-10.63-4.12-10.63-7.17,0-.8,8.68-.56,10.16-.56,4.37,0,8.41-.47,8.41,8.29,0,12.88,5.65,10.63,5.65,11.57s-5.65-1.31-5.65,11.52Z"/></g></g><g id="c"/></svg>