<?xml version="1.0" encoding="UTF-8"?><svg xmlns="http://www.w3.org/2000/svg" width="98" height="78" xmlns:xlink="http://www.w3.org/1999/xlink" viewBox="0 0 98 78"><defs><style>.e{fill:url(#d);}.f{fill:#f4cfa2;}.g{filter:url(#c);}</style><filter id="c" x="-15%" y="-15%" width="140%" height="130%"><feGaussianBlur in="SourceAlpha" result="blur" stdDeviation="6"/><feOffset dx="8" dy="8" in="blur" result="offsetBlurredAlpha"/><feMerge><feMergeNode in="offsetBlurredAlpha"/><feMergeNode in="SourceGraphic"/></feMerge></filter><radialGradient id="d" cx="45.5" cy="39" fx="45.5" fy="39" r="24.01" gradientTransform="translate(13.46 10.69) rotate(1.27) scale(.71) skewX(.33)" gradientUnits="userSpaceOnUse"><stop offset="0" stop-color="#8b29ec"/><stop offset=".26" stop-color="#8b29ec"/><stop offset=".45" stop-color="#9425e4"/><stop offset=".76" stop-color="#ac1ccf"/><stop offset="1" stop-color="#c514bb"/></radialGradient></defs><g id="a"/><g id="b"><g><g class="g"><path class="e" d="M45.52,64s17.84-14.22,22.64-24.44l1.06-2.29c.81-2.1,1.28-4.43,1.28-6.9,0-9.05-6.09-16.38-13.59-16.38-4.79,0-8.99,2.99-11.41,7.49-2.42-4.51-6.62-7.49-11.41-7.49-7.51,0-13.59,7.33-13.59,16.38,0,2.47,.47,4.8,1.28,6.9l1.06,2.29c4.8,10.22,22.64,24.44,22.64,24.44h.03Z"/></g><path class="f" d="M66.42,28.03c-.39,.35-1.26-4.37-4.94-7.55-3.29-2.84-6.56-2.51-6.44-2.96,.15-.55,5.28-1.95,8.57,1.49,2.92,3.05,3.22,8.67,2.81,9.02Z"/></g></g></svg>