<svg id="Layer_1" data-name="Layer 1" xmlns="http://www.w3.org/2000/svg" width="150" height="150" viewBox="0 0 150 150"><defs><style>.cls-1{fill:#915554;}.cls-2{fill:#ffaead;}.cls-3{fill:#fff;}.cls-4{fill:#fb6583;}.cls-5{fill:#ac2a51;}.cls-6{fill:#d4807f;}.cls-7{fill:#f07a92;}.cls-8{fill:#72183a;}.cls-9{fill:#fdaeac;}.cls-10{fill:#691b1a;}.cls-11{fill:#ad706f;}</style></defs><ellipse class="cls-1" cx="99" cy="68.82" rx="1.75" ry="6.08" transform="translate(13.68 154.02) rotate(-79.77)"/><path class="cls-2" d="M119.19,14.42c1.13-7.37,14.92-5.09,15-13.11.08-5.75,15.72,8.83,14.58,16.19s-8.68,12.65-16.86,11.8S118.05,21.79,119.19,14.42Z"/><path class="cls-2" d="M25.2,107.09C24,96.45,39.56,85.46,50.05,78.45S68.19,58.84,84.19,58.84c32,0,47.28,9.52,53.33,31.13,2.19,7.82-.58,16.2-5.75,25.77-6.61,12.23-27.59,20.53-47.58,20.53C52.2,136.27,28.46,134.81,25.2,107.09Z"/><path class="cls-2" d="M55.9,46c0-8.33,4.32-14,8.79-19.94C72.15,16.12,83.3,8.38,99.48,8.38c17.42,0,42.88,14.86,42.36,28.12-.29,7.25,8.16,7.55,8.16,14.82,0,22.23-24.64,25.94-50.52,25.94-12.48,0-18-1.49-26.41-5.52C64.05,67.41,55.9,57.51,55.9,46Z"/><polygon class="cls-2" points="136.08 133.51 138.27 128.73 132.63 114.11 117.3 122.97 130.36 132.37 136.08 133.51"/><polygon class="cls-2" points="116.61 144.73 118.8 139.94 113.16 125.32 97.82 134.19 110.88 143.58 116.61 144.73"/><polygon class="cls-2" points="63.48 147.38 66.77 142.69 64.43 125.16 47.04 130.94 58 144.64 63.48 147.38"/><polygon class="cls-2" points="81.02 144.28 81.65 139.8 72.83 126.92 61.83 135.96 75.72 143.62 81.02 144.28"/><ellipse class="cls-3" cx="125.39" cy="37.84" rx="8.27" ry="7.52" transform="translate(56.62 149.31) rotate(-75.12)"/><ellipse class="cls-3" cx="89.71" cy="42.82" rx="9.44" ry="10.8" transform="translate(0.24 86.14) rotate(-51.35)"/><path class="cls-2" d="M42.28,25.5c0-3-1.66-17.08.76-15.28,6.21,4.64,10,.83,15.66.83,9.07,0,16.42,6.47,16.42,14.45S67.77,40,58.7,40,42.28,33.49,42.28,25.5Z"/><path class="cls-4" d="M95,60.19c-1.8-6,5.22-12.65,15.68-14.75s20.4,1.09,22.2,7.13c.64,2.16,1.17,4.7-.29,6.45s-4.93,2.73-8.07,3.5c-2.52.61-6.7-1.22-9.7-.61-2.77.56-3.33,3.4-6,4.26-2.24.71-6.41,1.65-9.14,0C96.6,64.27,96,63.26,95,60.19Z"/><ellipse class="cls-5" cx="125.01" cy="53.67" rx="3.08" ry="3.93" transform="translate(0.51 108.51) rotate(-47.01)"/><ellipse class="cls-6" cx="138.89" cy="47.03" rx="4.02" ry="1.97" transform="translate(-7.11 33.33) rotate(-13.35)"/><ellipse class="cls-6" cx="84.21" cy="56.9" rx="4.08" ry="1.94"/><ellipse class="cls-5" cx="108.56" cy="56.9" rx="3.8" ry="3.35" transform="translate(-2.59 108.55) rotate(-52.58)"/><path class="cls-7" d="M50.51,26.38c0-1.84-1.67-10.69-.52-9.27,2.66,3.28,6.4,2.59,8.65,2.59,4.49,0,8.13,3,8.13,6.68s-3.64,6.69-8.13,6.69S50.51,30.07,50.51,26.38Z"/><path class="cls-7" d="M139.83,17c-.15-1.68.69-9.84-.27-8.48-2.2,3.13-5.72,2.72-7.8,2.84-4.16.25-7.29,3.18-7,6.54s3.91,5.89,8.07,5.64S140.13,20.37,139.83,17Z"/><ellipse cx="125.01" cy="41.57" rx="4.62" ry="3.9" transform="translate(-0.42 1.28) rotate(-0.59)"/><ellipse cx="91.79" cy="48.16" rx="3.83" ry="4.7" transform="translate(37.9 136.7) rotate(-86.36)"/><ellipse class="cls-3" cx="127.32" cy="42.38" rx="0.99" ry="0.81"/><ellipse class="cls-3" cx="94.38" cy="48.44" rx="0.99" ry="0.81"/><ellipse class="cls-3" cx="125.39" cy="42.38" rx="0.26" ry="0.22"/><ellipse class="cls-3" cx="92.87" cy="48.84" rx="0.26" ry="0.22"/><ellipse class="cls-3" cx="125.91" cy="43.62" rx="0.53" ry="0.43"/><ellipse class="cls-3" cx="93.39" cy="50.12" rx="0.53" ry="0.43"/><path class="cls-8" d="M137.13,134.11l.2-2.16a2.21,2.21,0,0,0-2.9-2.29l-2.18.74a2.2,2.2,0,0,0-.58,3.88l2,1.42A2.2,2.2,0,0,0,137.13,134.11Z"/><path class="cls-8" d="M117.26,144.3l0-2.41a2.2,2.2,0,0,0-3-2l-2.18.82a2.2,2.2,0,0,0-.51,3.85l2.2,1.59A2.21,2.21,0,0,0,117.26,144.3Z"/><path class="cls-8" d="M64.26,148.48l.78-2.36a2.21,2.21,0,0,0-2.39-2.87l-2.41.31a2.21,2.21,0,0,0-1.43,3.57l1.63,2A2.21,2.21,0,0,0,64.26,148.48Z"/><path class="cls-8" d="M140.72,132.7l-.33-2.66a2.21,2.21,0,0,0-3.16-1.71l-2.33,1.13a2.2,2.2,0,0,0-.13,3.9l2.67,1.53A2.2,2.2,0,0,0,140.72,132.7Z"/><path class="cls-8" d="M120.94,141.88l-.76-2.57a2.19,2.19,0,0,0-3.31-1.22l-2.11,1.36a2.21,2.21,0,0,0,.35,3.89l2.86,1.2A2.2,2.2,0,0,0,120.94,141.88Z"/><path class="cls-8" d="M68.4,146.69,68.27,144a2.21,2.21,0,0,0-3.06-1.92l-2.43,1a2.21,2.21,0,0,0-.35,3.88L65,148.65A2.2,2.2,0,0,0,68.4,146.69Z"/><path class="cls-8" d="M81.67,143.52l-.39-1.12a2.21,2.21,0,0,0-3.19-1.18l-.75.44a2.2,2.2,0,0,0,0,3.8l1.14.68A2.21,2.21,0,0,0,81.67,143.52Z"/><path class="cls-8" d="M84.44,141.54l-.47-1a2.21,2.21,0,0,0-3.25-.92L80,140a2.21,2.21,0,0,0,.25,3.8l1.16.58A2.21,2.21,0,0,0,84.44,141.54Z"/><path class="cls-9" d="M30.59,117.49c-5.44.5-7.86,3-13.09-2.15s-9.83-8.29-5.84-11.26c4.23-3.14,9.41.67,9.41.67l-7.26.45-.74,2.86,4.52,3.52,3.48,4.33"/><path class="cls-9" d="M1.38,99.35c5.25-2.12,6.48-3.6,13.55.27,7.26,4,6,2.25,6.47,6.21.55,4.9-8.95,3.73-8.95,3.73l5-1.18,3-2.26-2-3.28-4.08-1.91L7.68,98.85C7.49,99.7-3.87,101.47,1.38,99.35Z"/><ellipse class="cls-10" cx="117.63" cy="67.09" rx="5.1" ry="1.3" transform="translate(-5.2 10.08) rotate(-4.8)"/><path class="cls-11" d="M99,134.79a64.8,64.8,0,0,1-3.7-5.94c-.1-.22-.21-.5-.33-.81-1.19-3-3.29-9.51-3.29-9.51"/><path class="cls-11" d="M115.33,130.69a62.63,62.63,0,0,1-3.7-5.94l-.34-.81c-1.18-3-3.28-9.51-3.28-9.51"/><path class="cls-11" d="M132.74,113.76a48.47,48.47,0,0,1-3.49,5.17l-.56.6c-2.14,2.15-7.09,6.54-7.09,6.54"/><path class="cls-11" d="M79.21,136.27a23.17,23.17,0,0,1-3.46.86H75.3c-1.67,0-5.29-.31-5.29-.31"/><path class="cls-11" d="M60.84,124.48a44.51,44.51,0,0,1,3,5c.07.19.16.43.24.69.85,2.55,2.21,8.12,2.21,8.12"/></svg>