<?xml version="1.0" encoding="UTF-8"?><svg xmlns="http://www.w3.org/2000/svg" width="360.65" height="321" xmlns:xlink="http://www.w3.org/1999/xlink" viewBox="0 0 360.65 321"><defs><style>.g{fill:url(#c);}.h{fill:#d9e021;}.i{filter:url(#d);}.j{filter:url(#e);}.k{filter:url(#b);}</style><filter id="b"><feGaussianBlur in="SourceAlpha" result="blur" stdDeviation="2"/><feOffset dx="4" dy="4" in="blur" result="offsetBlurredAlpha"/><feMerge><feMergeNode in="offsetBlurredAlpha"/><feMergeNode in="SourceGraphic"/></feMerge></filter><radialGradient id="c" cx="233.96" cy="227.73" fx="233.96" fy="227.73" r="88.46" gradientTransform="translate(433.37 -14.25) rotate(87.08) scale(.97 .93)" gradientUnits="userSpaceOnUse"><stop offset=".4" stop-color="#999"/><stop offset=".55" stop-color="#969696"/><stop offset=".62" stop-color="#8f8f8f"/><stop offset=".67" stop-color="#828282"/><stop offset=".68" stop-color="gray"/><stop offset=".74" stop-color="#747474"/><stop offset=".82" stop-color="#606060"/><stop offset=".86" stop-color="#5c5c5c"/><stop offset=".9" stop-color="#505050"/><stop offset=".93" stop-color="#3c3c3c"/><stop offset=".97" stop-color="#212121"/><stop offset="1" stop-color="#000"/></radialGradient><filter id="d"><feGaussianBlur in="SourceAlpha" result="blur" stdDeviation="2"/><feOffset dx="4" dy="4" in="blur" result="offsetBlurredAlpha"/><feMerge><feMergeNode in="offsetBlurredAlpha"/><feMergeNode in="SourceGraphic"/></feMerge></filter><filter id="e"><feGaussianBlur in="SourceAlpha" result="blur" stdDeviation="2"/><feOffset dx="4" dy="4" in="blur" result="offsetBlurredAlpha"/><feMerge><feMergeNode in="offsetBlurredAlpha"/><feMergeNode in="SourceGraphic"/></feMerge></filter></defs><g id="a"><g class="k"><ellipse class="g" cx="232.37" cy="223.33" rx="83.16" ry="85.34" transform="translate(-2.5 444.04) rotate(-87.08)"/></g><g class="i"><path class="h" d="M297.21,232.22c-14.73,42.86-63.48,64.71-100.83,36.01-37.34-28.7-35.64-62.55-5.36-83.6,24.56-17.07,61.5-5,50.45-4.45-22.03,1.08-95.35,23.34-46.65,70.17,50.81,48.86,102.85-17.56,98.32-32.55-2.32-7.67,8.73,.86,4.07,14.42Z"/><polygon class="h" points="263.27 184.64 236.3 158.79 230.13 200.79 263.27 184.64"/></g><g class="j"><path class="h" d="M5.33,141.76l16.88-6.98c3.68-1.52,7.06-1.21,10.16,.93,3.1,2.14,5.81,5.88,8.15,11.22,2.4,5.49,3.28,10.2,2.64,14.11-.64,3.92-3.01,6.72-7.11,8.41l-5.56,2.3,8.82,20.18-10.2,4.22L5.33,141.76Zm20.34,18.97l2.49-1.03c1.96-.81,3.09-1.94,3.39-3.39,.3-1.45,.07-3.06-.7-4.81-.75-1.71-1.72-3.01-2.93-3.91-1.21-.9-2.76-.96-4.66-.18l-2.89,1.19,5.3,12.13Z"/><path class="h" d="M38.53,128.04l10.16-4.2,17.92,41,15.85-6.55,5.86,13.39-26.01,10.75-23.78-54.39Z"/><path class="h" d="M109.22,152.45l-11.53,4.76,2.32,9.64-10.37,4.29-11.43-59.49,11.08-4.58,36.13,49.29-10.64,4.39-5.57-8.3Zm-7.25-10.89l-12.18-18.05,4.96,21.04,7.22-2.98Z"/><path class="h" d="M97.66,103.61l11.28-4.66,14.64,15.61-1.39-21.09,11.22-4.64,1.04,36.89,9.96,22.78-10.18,4.21-9.96-22.78-26.62-26.32Z"/><path class="h" d="M192.07,118.22l-11.53,4.76,2.32,9.64-10.37,4.29-11.43-59.49,11.08-4.58,36.13,49.29-10.64,4.39-5.57-8.3Zm-7.25-10.89l-12.18-18.05,4.96,21.04,7.22-2.98Z"/><path class="h" d="M218.59,94.6l-4.95-11.32,15.7-6.49,10.14,23.19c-1.52,4.63-3.17,8.03-4.95,10.21-1.77,2.18-4.24,3.92-7.41,5.23-3.9,1.61-7.56,1.83-10.99,.64-3.42-1.18-6.76-3.67-10.02-7.47-3.26-3.79-6.12-8.51-8.58-14.15-2.6-5.94-4.11-11.4-4.55-16.41-.44-5,.27-9.23,2.13-12.68,1.46-2.68,4.07-4.79,7.84-6.35,3.63-1.5,6.59-2.08,8.87-1.74,2.28,.34,4.51,1.41,6.7,3.21,2.19,1.8,4.35,4.33,6.48,7.59l-8.53,6.94c-1.3-1.89-2.67-3.17-4.11-3.86-1.44-.69-2.91-.73-4.4-.11-2.23,.92-3.44,2.93-3.65,6.04-.2,3.11,.91,7.43,3.33,12.97,2.57,5.89,5.08,9.81,7.52,11.78,2.44,1.97,4.86,2.46,7.25,1.47,1.14-.47,2.1-1.19,2.89-2.16,.79-.97,1.57-2.38,2.33-4.25l-2.24-5.12-6.79,2.81Z"/><path class="h" d="M265.21,87.99l-11.53,4.76,2.32,9.64-10.37,4.29-11.43-59.49,11.08-4.58,36.13,49.29-10.64,4.39-5.57-8.3Zm-7.25-10.89l-12.18-18.05,4.96,21.04,7.22-2.98Z"/><path class="h" d="M261.27,36.01l10.18-4.21,23.78,54.39-10.18,4.21-23.78-54.39Z"/><path class="h" d="M278.81,28.76l9.48-3.92,25.53,24.98-13.16-30.09,9.57-3.96,23.78,54.39-9.57,3.96-25.37-24.78,13.06,29.86-9.55,3.95-23.78-54.39Z"/><path class="h" d="M347.55,44.43l-8.52,3.52-.62-1.41c-1.05-2.4-1.74-4.41-2.06-6.05-.33-1.63-.43-3.2-.32-4.71,.11-1.51,.62-4.29,1.53-8.34,.5-2.13,.45-3.88-.15-5.24-.59-1.36-1.3-2.32-2.12-2.87-.82-.55-1.72-.63-2.7-.22-1.06,.44-1.69,1.38-1.87,2.83-.19,1.45,.25,3.66,1.33,6.64l-9.48,1.81c-2.01-5.42-2.72-10.16-2.1-14.22s3.01-6.96,7.2-8.69c3.26-1.35,6.38-1.31,9.37,.12,4.05,1.92,7.18,5.41,9.4,10.48,.92,2.1,1.45,4.28,1.61,6.52s-.24,5.22-1.17,8.94c-.65,2.6-.9,4.59-.77,5.95,.13,1.36,.61,3.01,1.46,4.94Zm-7.17,7.39l9.13-3.77,5.82,13.32-9.13,3.77-5.82-13.32Z"/></g></g><g id="f"/></svg>