<?xml version="1.0" encoding="UTF-8"?><svg xmlns="http://www.w3.org/2000/svg" width="531" height="217" xmlns:xlink="http://www.w3.org/1999/xlink" viewBox="0 0 531 217"><defs><style>.f{fill:url(#d);}.g{fill:none;}.h{fill:#2b2b2b;}.i{filter:url(#b);}.j{filter:url(#c);}</style><filter id="b" x="-15%" y="-15%" width="140%" height="130%"><feGaussianBlur in="SourceAlpha" result="blur" stdDeviation="6"/><feOffset dx="8" dy="8" in="blur" result="offsetBlurredAlpha"/><feMerge><feMergeNode in="offsetBlurredAlpha"/><feMergeNode in="SourceGraphic"/></feMerge></filter><filter id="c" x="-15%" y="-15%" width="140%" height="130%"><feGaussianBlur in="SourceAlpha" result="blur" stdDeviation="6"/><feOffset dx="8" dy="8" in="blur" result="offsetBlurredAlpha"/><feMerge><feMergeNode in="offsetBlurredAlpha"/><feMergeNode in="SourceGraphic"/></feMerge></filter><linearGradient id="d" x1="56.85" y1="108.72" x2="435.83" y2="108.72" gradientTransform="matrix(1, 0, 0, 1, 0, 0)" gradientUnits="userSpaceOnUse"><stop offset=".04" stop-color="#afbd64"/><stop offset=".28" stop-color="#ceae76"/><stop offset=".58" stop-color="#a8bd65"/><stop offset=".65" stop-color="#a0b561"/><stop offset=".75" stop-color="#8ba258"/><stop offset=".83" stop-color="#768e4f"/><stop offset=".9" stop-color="#70884c"/><stop offset=".98" stop-color="#627a46"/><stop offset=".98" stop-color="#627a46"/></linearGradient></defs><g id="a"><g class="i"><rect class="g" x="57.47" y="25.83" width="387.05" height="176.77"/></g><g><g class="j"><rect class="f" x="56.85" y="25.09" width="378.98" height="167.25"/></g><g><path class="h" d="M101.42,60.06h39.17c8.53,0,14.92,2.55,19.17,7.65,4.25,5.1,6.37,12.36,6.37,21.78s-2.31,17.25-6.95,22.7c-4.63,5.45-11.7,8.18-21.2,8.18h-12.9v35.58h-23.67V60.06Zm23.67,40.88h5.77c4.54,0,7.73-.99,9.57-2.98,1.84-1.98,2.76-4.52,2.76-7.62s-.8-5.56-2.39-7.65c-1.6-2.09-4.6-3.14-9-3.14h-6.71v21.39Z"/><path class="h" d="M178.47,60.06h23.57v72.28h36.78v23.61h-60.35V60.06Z"/><path class="h" d="M296.43,140.13h-26.76l-3.72,15.83h-24.06l28.67-95.89h25.71l28.66,95.89h-24.68l-3.82-15.83Zm-4.89-20.74l-8.42-34.47-8.33,34.47h16.75Z"/><path class="h" d="M315.67,60.06h26.18l15.37,32.35,15.4-32.35h26.04l-29.66,55.73v40.16h-23.62v-40.16l-29.71-55.73Z"/></g></g></g><g id="e"/></svg>