<svg id="Layer_1" data-name="Layer 1" xmlns="http://www.w3.org/2000/svg" width="131" height="158" viewBox="0 0 131 158"><defs><style>.cls-1{fill:#d4aa48;}</style></defs><path class="cls-1" d="M32,34h71a64.2,64.2,0,0,1-7,14,66,66,0,0,1-22.6,20.75l-11,.57A103.4,103.4,0,0,1,43.52,53.23a54.86,54.86,0,0,1-7.46-9.94A48.45,48.45,0,0,1,32,34Z"/><path class="cls-1" d="M26.6,143.46c13.42,18,69.34,16.54,84.08-.2,5.56-6.3-.87-22-14.89-30.85C80.76,103,68.1,84.25,73.36,68.84A45.21,45.21,0,0,1,66,68a44.66,44.66,0,0,1-7-2c4,14.9.2,23.83-1.59,27.22a40.68,40.68,0,0,1-3.89,5.83c-3.21,4.2-7.51,8.39-16.22,15.84-2.91,2.5-7.3,4.65-9.9,12.74C25.11,134.78,24.18,140.21,26.6,143.46Z"/><path class="cls-1" d="M103,34H32a51.65,51.65,0,0,1-2-7,54.46,54.46,0,0,1,.67-24.76h74.08A59.23,59.23,0,0,1,103,34Z"/><path class="cls-1" d="M31,121l73-2a48.73,48.73,0,0,1,13.72,25.51,47.3,47.3,0,0,1-.1,17.49h-97a47.64,47.64,0,0,1-.37-18.25A48.21,48.21,0,0,1,31,121Z"/></svg>