<svg id="Layer_1" data-name="Layer 1" xmlns="http://www.w3.org/2000/svg" xmlns:xlink="http://www.w3.org/1999/xlink" width="131" height="130" viewBox="0 0 131 130"><defs><style>.cls-1{filter:url(#AI_Shadow_1);}.cls-2{fill:#957d67;}.cls-3{fill:#b2b2b2;}</style><filter id="AI_Shadow_1" name="AI_Shadow_1"><feGaussianBlur result="blur" stdDeviation="2" in="SourceAlpha"/><feOffset result="offsetBlurredAlpha" dx="4" dy="4" in="blur"/><feMerge><feMergeNode in="offsetBlurredAlpha"/><feMergeNode in="SourceGraphic"/></feMerge></filter></defs><g class="cls-1"><path class="cls-2" d="M102.49,100.61l13-21.9-15.32-9.19a35.35,35.35,0,0,0,.28-4.51,35.9,35.9,0,0,0-.32-4.79l15.29-8.87L102.74,29.26,87.7,38a34.59,34.59,0,0,0-9.33-5.51V15H53.05V32.47A34.68,34.68,0,0,0,44,37.78L28.41,28.44l-13,21.9L31.38,59.9a35.61,35.61,0,0,0,.07,10.7L15.52,79.83l12.64,22.1,16.18-9.39a34.87,34.87,0,0,0,8.71,5V115H78.37V97.55a35,35,0,0,0,9.54-5.68Z"/></g><g class="cls-1"><ellipse class="cls-3" cx="65.71" cy="65.01" rx="18.3" ry="17.96"/></g></svg>