<?xml version="1.0" encoding="UTF-8"?><svg xmlns="http://www.w3.org/2000/svg" width="378.57" height="166.44" xmlns:xlink="http://www.w3.org/1999/xlink" viewBox="0 0 378.57 166.44"><defs><style>.f{fill:url(#d);}.g{fill:#323d33;}.h{filter:url(#b);}.i{filter:url(#c);}</style><filter id="b" x="-15%" y="-15%" width="140%" height="130%"><feGaussianBlur in="SourceAlpha" result="blur" stdDeviation="6"/><feOffset dx="8" dy="8" in="blur" result="offsetBlurredAlpha"/><feMerge><feMergeNode in="offsetBlurredAlpha"/><feMergeNode in="SourceGraphic"/></feMerge></filter><filter id="c" x="-15%" y="-15%" width="140%" height="130%"><feGaussianBlur in="SourceAlpha" result="blur" stdDeviation="6"/><feOffset dx="8" dy="8" in="blur" result="offsetBlurredAlpha"/><feMerge><feMergeNode in="offsetBlurredAlpha"/><feMergeNode in="SourceGraphic"/></feMerge></filter><linearGradient id="d" x1="41.23" y1="75.53" x2="300.8" y2="75.53" gradientTransform="matrix(1, 0, 0, 1, 0, 0)" gradientUnits="userSpaceOnUse"><stop offset=".04" stop-color="#afbd64"/><stop offset=".28" stop-color="#ceae76"/><stop offset=".58" stop-color="#a8bd65"/><stop offset=".65" stop-color="#a0b561"/><stop offset=".75" stop-color="#8ba258"/><stop offset=".83" stop-color="#768e4f"/><stop offset=".9" stop-color="#70884c"/><stop offset=".98" stop-color="#627a46"/><stop offset=".98" stop-color="#627a46"/></linearGradient></defs><g id="a"><g><g><g class="h"><rect class="g" x="51.65" y="33.43" width="259.57" height="114.74"/></g><g class="i"><rect class="f" x="41.23" y="18.16" width="259.57" height="114.74"/></g></g><g><path d="M72.43,86.62l12.02-1.2c.26,3.12,.79,5.49,1.59,7.12,1.3,2.64,3.16,3.96,5.58,3.96,1.8,0,3.19-.67,4.17-2.03,.98-1.35,1.47-2.92,1.47-4.7s-.47-3.21-1.4-4.54c-.93-1.34-3.09-2.6-6.47-3.79-5.54-1.99-9.5-4.63-11.86-7.93-2.38-3.3-3.57-7.5-3.57-12.6,0-3.35,.61-6.52,1.83-9.51,1.22-2.98,3.05-5.33,5.5-7.04,2.45-1.71,5.8-2.56,10.06-2.56,5.23,0,9.21,1.55,11.95,4.65,2.74,3.1,4.38,8.04,4.9,14.81l-11.91,1.11c-.32-2.94-.98-5.08-2-6.41-1.01-1.34-2.41-2-4.2-2-1.47,0-2.58,.5-3.32,1.49-.74,1-1.12,2.2-1.12,3.63,0,1.04,.31,1.97,.92,2.81,.59,.86,2.01,1.66,4.24,2.41,5.52,1.9,9.48,3.82,11.87,5.77,2.39,1.94,4.13,4.36,5.22,7.24,1.09,2.88,1.63,6.1,1.63,9.66,0,4.19-.73,8.05-2.18,11.58-1.45,3.53-3.48,6.21-6.08,8.04-2.6,1.83-5.89,2.74-9.85,2.74-6.96,0-11.77-2.14-14.45-6.41-2.68-4.27-4.19-9.71-4.55-16.3Z"/><path d="M113.03,42.94h38.42v16.12h-12.89v49.16h-12.64V59.06h-12.89v-16.12Z"/><path d="M178.43,97.44h-14.35l-1.99,10.78h-12.9l15.37-65.28h13.79l15.37,65.28h-13.23l-2.05-10.78Zm-2.62-14.12l-4.51-23.47-4.47,23.47h8.98Z"/><path d="M197.89,108.22V42.94h21.06c3.91,0,6.89,.53,8.96,1.6,2.06,1.07,3.73,3.05,4.99,5.95s1.9,6.42,1.9,10.58c0,3.62-.48,6.75-1.45,9.37-.97,2.63-2.3,4.76-3.99,6.39-1.08,1.04-2.56,1.9-4.44,2.58,1.51,.8,2.6,1.6,3.29,2.41,.46,.54,1.14,1.68,2.02,3.43,.88,1.75,1.47,3.11,1.77,4.06l6.12,18.92h-14.28l-6.76-19.95c-.86-2.58-1.62-4.26-2.29-5.03-.91-1.01-1.94-1.51-3.1-1.51h-1.12v26.5h-12.69Zm12.69-38.83h5.33c.58,0,1.69-.3,3.35-.89,.84-.27,1.52-.95,2.05-2.05,.53-1.1,.8-2.36,.8-3.79,0-2.11-.42-3.73-1.26-4.85s-2.41-1.69-4.71-1.69h-5.55v13.27Z"/><path d="M238.79,42.94h38.42v16.12h-12.89v49.16h-12.64V59.06h-12.89v-16.12Z"/></g></g></g><g id="e"/></svg>