<svg id="Layer_1" data-name="Layer 1" xmlns="http://www.w3.org/2000/svg" width="140" height="200" viewBox="0 0 140 200"><defs><style>.cls-1{fill:#ebebeb;}.cls-2{fill:#d4aa48;}.cls-3{fill:#6b4d4e;}.cls-4{fill:#4f3d3b;}</style></defs><path class="cls-1" d="M82.94,102.77c-1.66-1.15-3.13-2.54-3.23-3.92-.09-1.19,1.86-3,3.63-4.38,20.13-7.35,35.11-28.67,35.11-50.73,0-27.28-21.23-23.35-48.45-23.35S19.87,16.46,19.87,43.74c0,23.69,16,46.52,38.05,52.12,1.17,1.22,2.18,2.51,2.22,3.41a3.27,3.27,0,0,1-1.24,2.49c-22.11,5.54-38.19,28.42-38.19,52.16,0,27.28,22.91,23.36,50.13,23.36,20.41,0,37.46,2.21,44.71-8.2,2.41-3.47,3.74-8.34,3.74-15.16C119.29,131.41,103.69,109.68,82.94,102.77Z"/><path class="cls-2" d="M33.3,61.33l70.91.6S94.93,88,74.41,96.8l-11,.58A103.88,103.88,0,0,1,44.57,81.25a53.82,53.82,0,0,1-7.46-9.94C34.5,66.59,33.51,61.19,33.3,61.33Z"/><path class="cls-2" d="M27.65,171.48c13.42,18,69.33,16.54,84.08-.2,5.56-6.31-.88-22.05-14.9-30.85-15-9.44-27.69-28.17-22.42-43.57,0,0-14.72-2.41-12.6-1.2,5.38,3.07-.32,20.49-3.36,25.58-4.15,7-7.54,10.93-20.1,21.67-2.92,2.49-7.3,4.65-9.9,12.74C26.16,162.8,25.22,168.23,27.65,171.48Z"/><rect class="cls-3" width="140" height="29.77" rx="14.88"/><path class="cls-4" d="M1.56,21.72s91.45-.12,124-.12c3.75,0,7.47-7.38,7.27-9.45C132.14,4.6,126,0,126,0c7.71,0,14,6.66,14,14.88h0c0,8.22-6.25,14.89-14,14.89H14C6.25,29.77,1.56,21.72,1.56,21.72Z"/><rect class="cls-3" y="170.23" width="140" height="29.77" rx="14.88"/><path class="cls-4" d="M1.56,192s91.45-.13,124-.13c3.75,0,7.47-7.38,7.27-9.45-.72-7.55-6.82-12.15-6.82-12.15,7.71,0,14,6.67,14,14.89h0c0,8.22-6.25,14.88-14,14.88H14C6.25,200,1.56,192,1.56,192Z"/><path class="cls-2" d="M104.21,62.86,33.3,62a137,137,0,0,1-1.66-15,139.92,139.92,0,0,1,.07-16.78H105.8a119.65,119.65,0,0,1,.29,17.5A116.72,116.72,0,0,1,104.21,62.86Z"/></svg>