<?xml version="1.0" encoding="UTF-8"?><svg id="a" xmlns="http://www.w3.org/2000/svg" width="256" height="256" viewBox="0 0 256 256"><defs><style>.b{fill:#f9fcb6;}</style></defs><ellipse class="b" cx="121.14" cy="115.96" rx="60.68" ry="46.75"/><g><path d="M90.74,121.01c-.76,.03-1.37,.11-1.81,.26-.45,.15-.8,.38-1.07,.7-.26,.32-.5,.78-.71,1.37-.26,.74-.67,1.62-1.22,2.66s-1.1,2.07-1.66,3.1c-.55,1.04-1.05,1.98-1.5,2.84-.45,.86-.72,1.52-.83,1.96-.16,.84-.36,1.39-.59,1.66-.24,.27-.54,.43-.91,.48-.53,.05-1.14,.11-1.85,.19s-1.41,.14-2.09,.19c-.68,.05-1.29,.09-1.81,.11-.53,.03-.84,.04-.95,.04-.26,0-.46-.13-.59-.41-.13-.27-.2-.53-.2-.78,0-.69,.07-1.14,.2-1.37,.13-.22,.38-.38,.75-.48,.79-.2,1.59-.55,2.41-1.07,.81-.52,1.49-1.44,2.01-2.77,.1-.34,.56-1.22,1.38-2.62,.81-1.4,1.8-3.1,2.96-5.1,1.16-1.99,2.41-4.16,3.75-6.5,1.34-2.34,2.58-4.63,3.71-6.87,1.13-2.24,2.06-4.32,2.8-6.24,.74-1.92,1.1-3.45,1.1-4.58,0-.15-.05-.36-.16-.63-.11-.27-.22-.58-.35-.92-.13-.34-.25-.65-.36-.92-.11-.27-.16-.48-.16-.63,0-.25,.17-.52,.51-.81,.34-.3,.75-.58,1.22-.85,.47-.27,.95-.49,1.42-.66,.47-.17,.84-.26,1.1-.26,.32,0,.8,.31,1.46,.92,.66,.62,1.2,1.34,1.62,2.18,1.79,3.55,3.68,7.34,5.68,11.38,2,4.04,4.5,8.52,7.5,13.44,1.89,3.1,3.48,5.57,4.77,7.39,1.29,1.82,2.33,3.21,3.12,4.17,.79,.96,1.35,1.61,1.7,1.96,.34,.34,.51,.59,.51,.74,0,.54-.2,.9-.59,1.07-.39,.17-.8,.26-1.22,.26-.32,0-.76-.03-1.34-.07-.58-.05-1.18-.12-1.81-.22-.63-.1-1.22-.2-1.78-.29-.55-.1-.96-.2-1.22-.29-.47-.1-.87-.41-1.18-.92-.32-.52-.58-1.1-.79-1.74-.16-.44-.49-1.19-.99-2.25-.5-1.06-1.04-2.13-1.62-3.21-.58-1.08-1.13-2.06-1.66-2.92-.53-.86-.92-1.34-1.18-1.44-.53-.25-1.42-.46-2.68-.63-1.26-.17-2.63-.31-4.1-.41-1.47-.1-2.92-.16-4.34-.19-1.42-.02-2.53-.04-3.31-.04-1.26,0-2.28,.01-3.04,.04Zm9.19-14.89c-.63-1.13-1.04-2.01-1.22-2.62-.19-.62-.46-.92-.83-.92-.16,0-.3,.11-.43,.33-.13,.22-.26,.51-.39,.85-.13,.35-.25,.69-.35,1.03-.11,.35-.24,.67-.39,.96l-4.1,7.83c-.58,1.13-1,1.93-1.26,2.4-.26,.47-.39,.83-.39,1.07,0,.35,.45,.52,1.34,.52h14.28l-6.23-11.45Z"/><path d="M155.92,93.86c1.6,1.92,2.41,4.28,2.41,7.09,0,1.58-.2,2.99-.59,4.25s-.91,2.34-1.54,3.25c-.63,.91-1.32,1.66-2.05,2.25-.74,.59-1.45,1.03-2.13,1.33l-5.6,2.36v.15c.58,.1,1.08,.22,1.5,.37,.42,.15,.79,.42,1.11,.81,2.21,2.56,4.35,4.84,6.43,6.83,2.08,2,3.93,3.71,5.56,5.13,1.63,1.43,2.95,2.56,3.95,3.4,1,.84,1.5,1.36,1.5,1.55,0,.34-.07,.65-.2,.92-.13,.27-.41,.61-.83,1-.47,.44-.83,.76-1.07,.96s-.49,.29-.75,.29h-1.26c-.42,0-.8-.06-1.14-.19-.34-.12-.72-.43-1.14-.92-.74-.84-1.62-1.85-2.64-3.03-1.03-1.18-2.46-2.71-4.3-4.58l-8.52-8.64c-.53-.54-1.06-.9-1.62-1.07-.55-.17-1.17-.26-1.85-.26-.05,.79-.09,1.65-.12,2.59-.03,.94-.04,2.02-.04,3.25v12.04c0,.39-.11,.75-.32,1.07-.21,.32-.61,.48-1.18,.48-.37,0-.87-.07-1.5-.22-.63-.15-1.26-.34-1.89-.59-.63-.25-1.18-.53-1.66-.85-.47-.32-.71-.65-.71-1,0-.25,.14-.57,.43-.96,.29-.39,.64-.86,1.06-1.4,.16-.25,.3-1.07,.43-2.47,.13-1.4,.24-2.99,.32-4.76,.08-1.77,.14-3.52,.2-5.25,.05-1.72,.08-3.03,.08-3.92v-3.92c0-2.07-.04-4.05-.12-5.95-.08-1.9-.2-3.51-.36-4.84-.05-.39-.2-.65-.43-.78-.24-.12-.47-.23-.71-.33-.24-.1-.46-.26-.67-.48-.21-.22-.32-.58-.32-1.07,0-.84,.34-1.48,1.03-1.92,1.31-.89,2.68-1.64,4.1-2.25,1.42-.62,2.76-1.12,4.02-1.51,1.26-.39,2.41-.68,3.43-.85,1.03-.17,1.83-.26,2.41-.26,3.26,0,5.69,.96,7.3,2.88Zm-13.38,18.99c.16,0,.78-.25,1.85-.74,1.08-.49,2.24-1.19,3.47-2.11,1.24-.91,2.34-2.04,3.31-3.4,.97-1.35,1.46-2.89,1.46-4.62,0-2.46-.53-4.2-1.58-5.21-1.05-1.01-2.31-1.51-3.79-1.51-.89,0-1.84,.2-2.84,.59-1,.4-1.79,.99-2.37,1.77-.16,.44-.29,1.08-.39,1.92-.11,.84-.2,1.8-.28,2.88-.08,1.08-.15,2.2-.2,3.36-.05,1.16-.08,2.25-.08,3.29v3.18c.16,.39,.63,.59,1.42,.59Z"/></g></svg>